<svg width="23" height="18" viewBox="0 0 23 18" fill="none" xmlns="http://www.w3.org/2000/svg">
<path d="M17.5001 14V11H14.5001V9H17.5001V6H19.5001V9H22.5001V11H19.5001V14H17.5001ZM10.5001 18L7.32506 15.15C6.12506 14.0667 5.09606 13.1 4.23806 12.25C3.37939 11.4 2.67106 10.6 2.11306 9.85C1.55439 9.1 1.14606 8.375 0.888061 7.675C0.629394 6.975 0.500061 6.24167 0.500061 5.475C0.500061 3.90833 1.02506 2.604 2.07506 1.562C3.12506 0.520666 4.43339 0 6.00006 0C6.86673 0 7.69173 0.179 8.47506 0.537C9.2584 0.895667 9.93339 1.40833 10.5001 2.075C11.0667 1.40833 11.7417 0.895667 12.5251 0.537C13.3084 0.179 14.1334 0 15.0001 0C16.4167 0 17.6041 0.429 18.5621 1.287C19.5207 2.14567 20.1167 3.15 20.3501 4.3C20.0501 4.18333 19.7501 4.09567 19.4501 4.037C19.1501 3.979 18.8584 3.95 18.5751 3.95C16.8917 3.95 15.4584 4.53733 14.2751 5.712C13.0917 6.88733 12.5001 8.31667 12.5001 10C12.5001 10.8667 12.6751 11.6873 13.0251 12.462C13.3751 13.2373 13.8667 13.9 14.5001 14.45C14.1834 14.7333 13.7707 15.096 13.2621 15.538C12.7541 15.9793 12.3167 16.3667 11.9501 16.7L10.5001 18Z" fill="white"/>
</svg>
