<svg width="36" height="35" viewBox="0 0 36 35" fill="none" xmlns="http://www.w3.org/2000/svg">
<g clip-path="url(#clip0_372_7878)">
<path d="M15.4178 16.4151C13.8153 16.7114 12.7079 17.699 12.4557 19.0607L11.2461 25.5867H14.6918C15.0043 25.5867 15.2576 25.84 15.2576 26.1525C15.2576 26.465 15.0043 26.7183 14.6918 26.7183H10.5658C10.3977 26.7183 10.2383 26.6478 10.1308 26.5185C10.0233 26.3893 9.97885 26.2232 10.0095 26.0579L11.343 18.8588C11.684 17.018 13.1303 15.6893 15.212 15.3045C16.2618 15.1105 17.3794 15.1913 18.3591 15.5322C19.4395 15.9082 20.2924 16.5679 20.8257 17.4401C20.9887 17.7067 20.9047 18.055 20.6381 18.218C20.3716 18.381 20.0232 18.297 19.8602 18.0303C19.0729 16.7426 17.2461 16.077 15.4178 16.4151ZM13.5566 12.8277C12.9132 12.1598 12.1626 10.9251 12.2408 8.83572C12.242 8.80233 12.2788 8.3873 12.3018 8.25286C12.67 6.10777 14.5813 5.0619 16.334 5.00034C16.3472 4.99989 16.3604 4.99989 16.3737 5.00034C17.0128 5.0228 17.6731 5.17625 18.2721 5.46601C18.4027 5.52916 18.7293 5.71746 18.7624 5.74434C19.7095 6.36782 20.4127 7.38862 20.4669 8.83572C20.5451 10.9251 19.7945 12.1598 19.1512 12.8277C18.4052 13.6021 17.4118 14.0286 16.3539 14.0286C15.296 14.0285 14.3025 13.602 13.5566 12.8277ZM19.336 8.87804C19.3102 8.18847 19.0818 7.63572 18.7301 7.21158C18.294 8.47223 17.4298 9.40669 16.2713 9.83756C15.8393 9.99826 15.3881 10.0767 14.9391 10.0767C14.4114 10.0767 13.8871 9.96753 13.4 9.75682C13.4996 10.6984 13.8284 11.4788 14.3716 12.0426C14.9022 12.5935 15.6062 12.8969 16.3539 12.8969C17.1015 12.8969 17.8055 12.5936 18.3361 12.0426C19.0404 11.3115 19.3861 10.2172 19.336 8.87804ZM13.412 8.47908C14.137 8.96484 15.056 9.08219 15.8768 8.77693C16.8119 8.42912 17.4874 7.60035 17.769 6.47442C17.3302 6.26422 16.84 6.15162 16.3539 6.13204C15.0247 6.18557 13.6653 6.93217 13.412 8.47908ZM24.3129 28.0271C24.1242 28.1597 23.9082 28.3099 23.6653 28.4848L21.7092 29.8934C21.6104 29.9645 21.4949 30.0001 21.379 30.0001C21.263 30.0001 21.1479 29.9645 21.0491 29.8934L19.0943 28.4848C18.8518 28.3103 18.6413 28.1602 18.4529 28.0278C16.9277 26.9563 16.8463 26.7875 16.8932 25.0182C16.9018 24.6939 16.9253 24.2903 16.9253 23.8005V20.9837C16.9253 20.8016 17.0012 20.6308 17.1489 20.5244C18.3113 19.6876 20.6789 19.6226 21.3804 19.6226C22.0818 19.6226 24.4631 19.6876 25.6257 20.5244C25.7734 20.6308 25.8653 20.8016 25.8653 20.9837V23.8005C25.8653 24.2902 25.8716 24.6938 25.8803 25.018C25.9273 26.7874 25.8374 26.956 24.3129 28.0271ZM24.745 25.048C24.7374 24.7629 24.7286 24.4174 24.7261 24.0047L22.9717 23.3922C22.6767 23.2893 22.522 22.9666 22.6251 22.6716C22.728 22.3766 23.0527 22.2207 23.3479 22.3238L24.7337 22.806V21.3031C24.0547 20.9653 22.8046 20.7543 21.3954 20.7543C19.9861 20.7543 18.6794 20.9653 18.057 21.3031V22.7803L19.3522 22.3238C19.6472 22.2207 19.9571 22.3766 20.0601 22.6716C20.1631 22.9666 20.0074 23.2893 19.7124 23.3922L18.0311 23.9789C18.0289 24.4033 18.0195 24.7571 18.0118 25.0482C17.9942 25.713 17.9845 26.0793 18.0819 26.2653C18.1839 26.4602 18.5083 26.6881 19.0971 27.1017C19.2881 27.2359 19.5045 27.388 19.7524 27.5664L21.3782 28.737L23.0039 27.5665C23.2522 27.3878 23.4689 27.2354 23.6601 27.1011C24.2485 26.6877 24.5727 26.4599 24.6747 26.2652C24.772 26.0792 24.7626 25.7129 24.745 25.048ZM21.8984 25.2153C21.7928 25.3275 21.6169 25.4612 21.3782 25.4612C21.1395 25.4612 20.9634 25.3274 20.8578 25.2152C20.6436 24.9877 20.2854 24.9767 20.0579 25.1909C19.8304 25.4051 19.8195 25.7632 20.0336 25.9907C20.3991 26.379 20.8766 26.5929 21.3782 26.5929C21.8799 26.5929 22.3575 26.379 22.7227 25.9906C22.9368 25.763 22.9259 25.4048 22.6982 25.1908C22.4705 24.9767 22.1124 24.9877 21.8984 25.2153Z" fill="white" stroke="white" stroke-width="0.0792153"/>
</g>
<defs>
<clipPath id="clip0_372_7878">
<rect width="25.8891" height="25.0001" fill="white" transform="translate(5 5)"/>
</clipPath>
</defs>
</svg>
