<svg width="35" height="35" viewBox="0 0 35 35" fill="none" xmlns="http://www.w3.org/2000/svg">
<path d="M18.4148 10.2988C18.7408 10.4338 18.9532 10.7518 18.9532 11.1045V15.7557C18.9532 16.2373 18.5627 16.6278 18.0811 16.6278C17.5995 16.6278 17.209 16.2373 17.209 15.7557V13.21L16.9535 13.4654C16.613 13.806 16.0609 13.806 15.7203 13.4654C15.3797 13.1248 15.3797 12.5726 15.7203 12.2321L17.4645 10.4879C17.7139 10.2385 18.089 10.1638 18.4148 10.2988Z" fill="white"/>
<path fill-rule="evenodd" clip-rule="evenodd" d="M12.2656 5.41534C13.6178 5.1872 15.3749 5 17.5003 5C19.6255 5 21.3826 5.1872 22.7348 5.41534L22.8917 5.44166C24.0664 5.63829 25.0426 5.80173 25.8061 6.74195C26.2958 7.34498 26.4537 7.99666 26.4901 8.72469L27.0618 8.91526C27.6003 9.09473 28.0723 9.25203 28.4468 9.42623C28.8516 9.61456 29.2227 9.85714 29.5063 10.2506C29.7899 10.6441 29.9027 11.0728 29.9532 11.5164C30.0001 11.9268 30.0001 12.4243 30 12.9919V13.1608C30 13.628 30.0001 14.0407 29.9656 14.3858C29.9281 14.7599 29.8453 15.1235 29.6386 15.4749C29.4318 15.8264 29.1542 16.0753 28.8453 16.2897C28.5603 16.4874 28.1996 16.6878 27.7911 16.9147L24.7207 18.6206C24.0935 19.8547 23.2317 20.955 22.0467 21.7498C21.0296 22.4319 19.8118 22.8637 18.3722 22.9869V25.3488H20.0352C21.0052 25.3488 21.8403 26.0335 22.0305 26.9846L22.2848 28.2558H24.4768C24.9585 28.2558 25.3489 28.6463 25.3489 29.1279C25.3489 29.6095 24.9585 30 24.4768 30H10.5233C10.0416 30 9.65118 29.6095 9.65118 29.1279C9.65118 28.6463 10.0416 28.2558 10.5233 28.2558H12.7153L12.9696 26.9846C13.1598 26.0335 13.9949 25.3488 14.9649 25.3488H16.628V22.9869C15.1884 22.8636 13.9707 22.4319 12.9537 21.7498C11.7688 20.955 10.9072 19.8549 10.28 18.6209L7.20887 16.9147C6.80043 16.6878 6.43969 16.4874 6.15474 16.2897C5.84591 16.0753 5.56823 15.8264 5.36143 15.4749C5.15464 15.1235 5.07186 14.7599 5.03448 14.3858C4.99999 14.0407 5 13.628 5.00001 13.1608L5 12.9919C4.99996 12.4243 4.99991 11.9268 5.04675 11.5164C5.09739 11.0728 5.21019 10.6441 5.4938 10.2506C5.77741 9.85714 6.1484 9.61456 6.55323 9.42623C6.9277 9.25203 7.3997 9.09473 7.93822 8.91526L8.51038 8.72453C8.5468 7.99658 8.70476 7.34493 9.19435 6.74195C9.95777 5.80173 10.9341 5.63829 12.1088 5.44166L12.2656 5.41534ZM14.4941 28.2558H20.5061L20.3202 27.3267C20.2931 27.1908 20.1738 27.093 20.0352 27.093H14.9649C14.8264 27.093 14.7071 27.1908 14.6799 27.3267L14.4941 28.2558ZM8.54897 10.5502C8.63219 12.318 8.83188 14.2718 9.32907 16.0973L8.08989 15.4088C7.63739 15.1575 7.35405 14.9989 7.14919 14.8567C6.96034 14.7257 6.89882 14.6484 6.8647 14.5904C6.83057 14.5324 6.79288 14.4411 6.77002 14.2124C6.74523 13.9642 6.74422 13.6396 6.74421 13.1219V13.0376C6.74418 12.4107 6.74549 12.0138 6.7797 11.7142C6.81135 11.4369 6.86316 11.3338 6.90878 11.2705C6.95439 11.2072 7.03583 11.1254 7.28893 11.0077C7.56236 10.8805 7.93848 10.7537 8.53315 10.5555L8.54897 10.5502ZM25.6715 16.097L26.9102 15.4088C27.3626 15.1575 27.646 14.9989 27.8508 14.8567C28.0397 14.7257 28.1013 14.6484 28.1353 14.5904C28.1695 14.5324 28.2072 14.4411 28.23 14.2124C28.2549 13.9642 28.2558 13.6396 28.2558 13.1219V13.0376C28.2559 12.4107 28.2545 12.0138 28.2203 11.7142C28.1887 11.4369 28.1368 11.3338 28.0913 11.2705C28.0457 11.2072 27.9642 11.1254 27.7111 11.0077C27.4377 10.8805 27.0616 10.7537 26.4669 10.5555L26.4515 10.5503C26.3682 12.318 26.1686 14.2717 25.6715 16.097ZM17.5003 6.74419C15.4777 6.74419 13.8177 6.92231 12.5558 7.13522C11.1524 7.372 10.8576 7.46058 10.5484 7.84137C10.2437 8.21665 10.2148 8.57158 10.2773 10.1473C10.3816 12.7737 10.728 15.6078 11.801 17.7633C12.3306 18.8272 13.0231 19.6962 13.9253 20.3012C14.8216 20.9024 15.9781 21.2791 17.5003 21.2791C19.0224 21.2791 20.1788 20.9024 21.0752 20.3012C21.9774 19.6962 22.6698 18.8272 23.1995 17.7633C24.2724 15.6078 24.6189 12.7737 24.7231 10.1473C24.7857 8.57158 24.7567 8.21665 24.4521 7.84137C24.1429 7.46058 23.8481 7.372 22.4447 7.13522C21.1827 6.92231 19.5227 6.74419 17.5003 6.74419Z" fill="white"/>
</svg>
