<svg width="35" height="35" viewBox="0 0 35 35" fill="none" xmlns="http://www.w3.org/2000/svg">
<g clip-path="url(#clip0_372_8214)">
<path d="M23.4918 29.3552L12.0075 18.9901C11.8556 18.8529 11.6212 18.8649 11.4842 19.0168C11.347 19.1687 11.359 19.4031 11.5109 19.5402L22.9952 29.9053C23.066 29.9693 23.1548 30.0008 23.2433 30.0008C23.3445 30.0008 23.4453 29.9596 23.5185 29.8786C23.6557 29.7266 23.6437 29.4923 23.4918 29.3552Z" fill="white" stroke="white" stroke-width="0.0683592"/>
<path d="M23.5184 19.0168C23.3813 18.8649 23.147 18.8529 22.9951 18.99L11.5109 29.3553C11.359 29.4924 11.347 29.7266 11.4842 29.8786C11.5573 29.9596 11.6581 30.0009 11.7593 30.0009C11.8478 30.0009 11.9366 29.9693 12.0074 29.9053L23.4916 19.5401C23.6436 19.403 23.6555 19.1687 23.5184 19.0168Z" fill="white" stroke="white" stroke-width="0.0683592"/>
<path d="M27.6868 16.5246C27.5312 16.4032 27.3566 16.3164 27.1728 16.266V5.99004C27.1727 5.44414 26.7286 5 26.1826 5C25.6367 5 25.1926 5.44414 25.1926 5.99004V6.26421H11.8806C11.676 6.26421 11.5101 6.43003 11.5101 6.63471C11.5101 6.8394 11.676 7.00522 11.8806 7.00522H25.1926V12.1763H9.84405V6.63471V5.99004C9.84405 5.44414 9.39991 5 8.85396 5C8.30806 5 7.86388 5.44414 7.86388 5.99004V16.3342C7.67179 16.3843 7.48902 16.4735 7.32662 16.6001C6.96515 16.882 6.75675 17.3059 6.75504 17.7617L6.75196 18.1578C6.75123 18.2571 6.79029 18.3525 6.86051 18.4227C7.48258 19.0447 9.45503 19.389 11.5542 19.5789L16.9477 24.4468L11.5104 29.3543C11.3584 29.4915 11.3464 29.7257 11.4836 29.8777C11.5567 29.9587 11.6575 30 11.7587 30C11.8472 30 11.936 29.9684 12.0068 29.9044L17.5007 24.9459L22.9946 29.9044C23.0655 29.9684 23.1542 30 23.2427 30C23.3439 30 23.4447 29.9587 23.5178 29.8777C23.655 29.7258 23.643 29.4915 23.4911 29.3543L18.0537 24.4468L23.4911 19.5393C23.4956 19.5353 23.4995 19.5309 23.5037 19.5267C25.579 19.3197 27.5185 18.9616 28.138 18.3423C28.2068 18.2735 28.2458 18.1803 28.2465 18.083L28.2495 17.6856C28.2513 17.2282 28.0462 16.8052 27.6868 16.5246ZM25.9337 6.63471V5.99004C25.9337 5.85508 26.0477 5.74106 26.1827 5.74106C26.3177 5.74106 26.4317 5.85508 26.4317 5.99004V16.2586C26.4285 16.2594 26.4254 16.2599 26.4222 16.2607C26.2704 16.2993 26.1071 16.3366 25.9337 16.3727V12.5469H25.9337V6.63471ZM8.60489 5.99004C8.60494 5.85508 8.719 5.74106 8.85396 5.74106C8.98892 5.74106 9.10298 5.85508 9.10298 5.99004V6.63471V12.5469V16.4436C8.92598 16.4085 8.75958 16.3719 8.60489 16.334V5.99004ZM17.5007 23.9477L12.763 19.6717C14.6416 19.7926 16.4351 19.8092 17.2708 19.8092C17.3559 19.8092 17.4311 19.809 17.4954 19.8088C18.1976 19.806 20.1925 19.7839 22.2832 19.6312L17.5007 23.9477ZM27.5068 17.9035C27.2155 18.0979 26.3934 18.4389 24.0911 18.7152C22.2751 18.9331 19.9318 19.0583 17.4927 19.0677C15.0535 19.0774 12.7113 18.9701 10.897 18.7663C8.60782 18.5092 7.78682 18.1772 7.49439 17.9852L7.49605 17.766C7.49693 17.5376 7.60128 17.3257 7.78228 17.1845C7.96207 17.0443 8.19097 16.995 8.41031 17.0492C9.18091 17.2398 10.2105 17.3967 11.4703 17.5155C11.6739 17.5344 11.8548 17.3851 11.874 17.1814C11.8932 16.9777 11.7436 16.7969 11.5398 16.7777C10.9126 16.7185 10.3464 16.6501 9.84395 16.5729V12.9173H25.1926V16.5084C22.3602 16.9679 17.6569 17.1448 13.4654 16.9181C13.2612 16.9087 13.0865 17.0637 13.0754 17.268C13.0643 17.4724 13.221 17.647 13.4253 17.6581C17.6276 17.8853 23.6747 17.7246 26.6048 16.9788C26.8249 16.9228 27.053 16.9702 27.2307 17.1088C27.408 17.2472 27.5092 17.4564 27.5083 17.6813L27.5068 17.9035Z" fill="white" stroke="white" stroke-width="0.0683592"/>
<path d="M11.6887 8.36133H11.1116C11.0008 8.36133 10.9258 8.42329 10.9258 8.49175V10.6141C10.9258 10.6826 11.0008 10.7445 11.1116 10.7445H11.6887C12.119 10.7445 12.4548 10.5424 12.4548 9.99795V9.10791C12.4548 8.56343 12.119 8.36133 11.6887 8.36133ZM12.031 9.99795C12.031 10.2522 11.9038 10.3728 11.6887 10.3728H11.3496V8.73296H11.6887C11.9038 8.73296 12.031 8.85366 12.031 9.10791V9.99795Z" fill="white" stroke="white" stroke-width="0.0683592"/>
<path d="M13.0283 8.36133C12.9207 8.36133 12.8164 8.40044 12.8164 8.49175V10.6109C12.8164 10.699 12.9208 10.7446 13.0283 10.7446C13.1327 10.7446 13.2402 10.699 13.2402 10.6109V8.49175C13.2402 8.40049 13.1327 8.36133 13.0283 8.36133Z" fill="white" stroke="white" stroke-width="0.0683592"/>
<path d="M15.188 10.487L14.7609 9.69472C15.0054 9.61977 15.188 9.41762 15.188 9.04267C15.188 8.52432 14.8424 8.36133 14.4153 8.36133H13.7698C13.6883 8.36133 13.6328 8.42329 13.6328 8.49175V10.6109C13.6328 10.6989 13.7404 10.7446 13.8447 10.7446C13.9523 10.7446 14.0566 10.6989 14.0566 10.6109V9.75991H14.3305L14.7934 10.6598C14.826 10.725 14.8814 10.7608 14.9401 10.7608C15.064 10.7608 15.2042 10.6468 15.2042 10.5392C15.2043 10.5261 15.2011 10.5033 15.188 10.487ZM14.4153 9.42739H14.0567V8.73296H14.4153C14.6272 8.73296 14.7642 8.82427 14.7642 9.08183C14.7642 9.3394 14.6272 9.42739 14.4153 9.42739Z" fill="white" stroke="white" stroke-width="0.0683592"/>
<path d="M16.8367 10.3728H15.9141V9.71753H16.4096C16.5009 9.71753 16.5433 9.62949 16.5433 9.55449C16.5433 9.4664 16.4944 9.38496 16.4096 9.38496H15.9141V8.73291H16.8367C16.9215 8.73291 16.9704 8.64492 16.9704 8.54385C16.9704 8.45581 16.928 8.36133 16.8367 8.36133H15.6761C15.5815 8.36133 15.4902 8.40698 15.4902 8.49497V10.6109C15.4902 10.6989 15.5815 10.7446 15.6761 10.7446H16.8367C16.928 10.7446 16.9704 10.65 16.9704 10.5621C16.9704 10.4609 16.9215 10.3728 16.8367 10.3728Z" fill="white" stroke="white" stroke-width="0.0683592"/>
<path d="M18.4839 9.90986C18.373 9.90986 18.2817 9.94248 18.2752 10.0436C18.2655 10.1805 18.2394 10.3924 17.9427 10.3924C17.7177 10.3924 17.5938 10.2717 17.5938 10.0175V9.10786C17.5938 8.85351 17.7177 8.73291 17.9361 8.73291C18.2458 8.73291 18.2687 8.95469 18.2752 9.05576C18.2785 9.15351 18.3666 9.1894 18.4871 9.1894C18.6306 9.1894 18.699 9.15029 18.699 8.98071C18.699 8.60254 18.3762 8.36133 17.923 8.36133C17.5123 8.36133 17.1699 8.56343 17.1699 9.10791V10.0175C17.1699 10.562 17.509 10.7641 17.9198 10.7641C18.3762 10.7641 18.699 10.5131 18.699 10.1186C18.6991 9.95224 18.6306 9.90986 18.4839 9.90986Z" fill="white" stroke="white" stroke-width="0.0683592"/>
<path d="M20.3429 8.36133H18.9638C18.8725 8.36133 18.8301 8.45908 18.8301 8.55039C18.8301 8.65474 18.879 8.74277 18.9638 8.74277H19.443V10.6109C19.443 10.6989 19.5474 10.7446 19.6549 10.7446C19.7593 10.7446 19.8668 10.6989 19.8668 10.6109V8.74277H20.3428C20.4276 8.74277 20.4765 8.65146 20.4765 8.55039C20.4766 8.45913 20.4342 8.36133 20.3429 8.36133Z" fill="white" stroke="white" stroke-width="0.0683592"/>
<path d="M21.4055 8.36133C20.9751 8.36133 20.6426 8.56343 20.6426 9.10791V10.0175C20.6426 10.5621 20.9751 10.7642 21.4055 10.7641C21.8358 10.7641 22.1716 10.562 22.1716 10.0175V9.10791C22.1716 8.56343 21.8358 8.36133 21.4055 8.36133ZM21.7478 10.0175C21.7478 10.2751 21.6174 10.3925 21.4055 10.3925C21.1903 10.3925 21.0664 10.2751 21.0664 10.0175V9.10791C21.0664 8.85034 21.1903 8.73296 21.4055 8.73296C21.6174 8.73296 21.7478 8.85034 21.7478 9.10791V10.0175Z" fill="white" stroke="white" stroke-width="0.0683592"/>
<path d="M24.0884 10.487L23.6613 9.69472C23.9058 9.61977 24.0884 9.41762 24.0884 9.04267C24.0884 8.52432 23.7428 8.36133 23.3157 8.36133H22.6702C22.5887 8.36133 22.5332 8.42329 22.5332 8.49175V10.6109C22.5332 10.6989 22.6408 10.7446 22.7451 10.7446C22.8527 10.7446 22.957 10.6989 22.957 10.6109V9.75991H23.2309L23.6938 10.6598C23.7264 10.725 23.7818 10.7608 23.8405 10.7608C23.9644 10.7608 24.1046 10.6468 24.1046 10.5392C24.1047 10.5261 24.1015 10.5033 24.0884 10.487ZM23.3157 9.42739H22.9571V8.73296H23.3157C23.5276 8.73296 23.6646 8.82427 23.6646 9.08183C23.6646 9.3394 23.5276 9.42739 23.3157 9.42739Z" fill="white" stroke="white" stroke-width="0.0683592"/>
</g>
<defs>
<clipPath id="clip0_372_8214">
<rect width="25" height="25" fill="white" transform="translate(5 5)"/>
</clipPath>
</defs>
</svg>
