<svg width="26" height="24" viewBox="0 0 26 24" fill="none" xmlns="http://www.w3.org/2000/svg">
<path d="M25.34 0.65332H22.823C22.1308 0.65332 21.5645 1.21965 21.5645 1.91182V13.2383C21.5645 13.9305 22.1308 14.4968 22.823 14.4968H25.34V0.65332ZM0.383928 9.61384C0.245493 9.92847 0.169983 10.2683 0.169983 10.6206V11.9798C0.169983 13.3642 1.30263 14.4968 2.68698 14.4968H9.60873L8.45091 20.3488C8.38799 20.6257 8.42574 20.9278 8.55159 21.1795C8.84105 21.7458 9.20601 22.2618 9.65907 22.7148L10.238 23.3063L18.305 15.2393C18.7832 14.7611 19.0475 14.1193 19.0475 13.4523V3.59821C19.0475 1.97475 17.7261 0.65332 16.1026 0.65332H5.90874C5.01521 0.65332 4.19718 1.11897 3.74412 1.87407L0.383928 9.61384Z" fill="#E3170A"/>
</svg>
