<svg width="35" height="35" viewBox="0 0 35 35" fill="none" xmlns="http://www.w3.org/2000/svg">
<path d="M26.0545 5C24.9371 6.41521 23.4317 7.7465 21.6161 8.8165C19.6756 9.95993 17.6557 10.6277 15.7959 10.8669C15.904 11.1935 16.0237 11.5214 16.1554 11.85C17.0001 11.8649 17.7047 11.8266 18.0762 11.7692L18.5758 11.6868L19.0209 11.6178L19.0325 12.1666C19.0235 12.4991 19.0043 12.8351 18.9747 13.1751L21.9623 13.6514C22.0076 13.6463 22.0526 13.6434 22.0975 13.643C22.6878 13.6368 23.2287 14.0357 23.3884 14.6446C23.4231 14.7765 23.4371 14.9088 23.433 15.0386C23.7481 14.9268 24.0531 14.8067 24.3447 14.6766L24.8509 14.451L24.973 15.0015C25.1567 15.8262 25.291 16.6923 25.3621 17.5907C27.0821 16.7016 28.6727 15.5096 29.9686 13.9899C29.7987 12.0112 29.1163 9.78571 27.9044 7.64306C27.8656 7.57454 27.8268 7.50698 27.7872 7.43943L26.3332 11.2845C26.6051 11.3255 26.8673 11.4546 27.0767 11.6684C27.5942 12.1967 27.5944 13.0523 27.0767 13.5808C26.559 14.1093 25.7196 14.1091 25.2021 13.5808C24.7347 13.1036 24.6909 12.359 25.0685 11.83L27.1229 6.39733C26.7826 5.90278 26.4257 5.43674 26.0545 5ZM6.69309 9.74584C6.24674 10.6818 5.86159 11.6959 5.57526 12.7862C4.83093 15.6207 4.83873 18.3717 5.4269 20.5134C6.12861 20.3731 6.82198 20.3001 7.50101 20.2963C7.59888 20.2957 7.69558 20.2974 7.79277 20.2996C8.89318 20.3254 9.95488 20.5329 10.9568 20.9191C10.8998 20.3181 10.8694 19.703 10.8694 19.0757C10.8694 17.5781 11.0348 16.1463 11.3443 14.8232L11.4746 14.2626L11.984 14.5083C13.5387 15.2615 15.4764 15.7702 17.5913 15.867C17.8623 14.7869 18.0234 13.724 18.0877 12.702C16.2306 12.9622 14.1103 12.851 11.946 12.2592C9.92201 11.7058 8.13075 10.8165 6.69314 9.74574L6.69309 9.74584ZM18.8592 14.1751C18.7783 14.7382 18.6685 15.308 18.5312 15.8821C19.3686 15.8717 20.1818 15.7962 20.9581 15.6682C20.9024 15.5691 20.8582 15.4623 20.8278 15.3467C20.7511 15.0541 20.7751 14.7582 20.8773 14.4966L18.8592 14.175V14.1751ZM9.49771 14.1986L9.71698 15.1802L8.57768 15.4444C9.03933 15.7231 9.28219 16.2904 9.13662 16.8451C8.96146 17.5128 8.29009 17.9095 7.63628 17.7306C6.98237 17.5518 6.59374 16.8646 6.76891 16.1969C6.80457 16.0613 6.86155 15.9372 6.93384 15.8266L5.8226 16.0841L5.60497 15.1026L9.4976 14.1987L9.49771 14.1986ZM29.9999 15.4276C28.653 16.7992 27.082 17.8758 25.4148 18.6869C25.4174 18.816 25.4197 18.9454 25.4197 19.0757C25.4197 19.5707 25.401 20.0579 25.3653 20.537C26.243 20.6086 27.056 20.4454 27.7577 20.032C29.1255 19.2259 29.9002 17.5704 30 15.4275L29.9999 15.4276ZM12.1225 15.5892C11.9099 16.6663 11.7886 17.8147 11.7845 19.0151L11.7911 18.9967C13.4039 19.5448 15.0951 19.9433 16.8165 20.1482L17.2122 20.1953L17.2501 20.5994L17.5502 23.8384L16.5675 23.9327L16.434 22.4916C16.1941 22.5926 15.9209 22.6177 15.6508 22.5438C14.9969 22.3649 14.6083 21.6795 14.7835 21.0119C14.7986 20.9548 14.8177 20.8998 14.8396 20.8468C13.8089 20.6461 12.7959 20.384 11.8109 20.0641C11.9528 22.7372 12.6632 25.1302 13.7152 26.8873C14.8952 28.8583 16.4656 30 18.1453 30C19.8251 30.0002 21.3955 28.8585 22.5756 26.8873C23.6063 25.1655 24.3086 22.8337 24.47 20.2257C23.6378 20.4766 22.7872 20.6864 21.9243 20.8536C22.0253 21.0998 22.0517 21.3805 21.9788 21.6584C21.8035 22.3261 21.1322 22.7228 20.4784 22.5439C20.4398 22.5334 20.4029 22.5209 20.3663 22.5069L20.2344 23.9329L19.2534 23.8385L19.5535 20.5995L19.5914 20.1954L19.987 20.1483C21.53 19.9647 23.0469 19.6248 24.5063 19.1618V19.0759C24.5063 17.9137 24.3865 16.8009 24.1864 15.7493C22.4836 16.4223 20.4767 16.8181 18.3251 16.8181C16.0253 16.8181 13.894 16.3517 12.1225 15.5892V15.5892ZM7.50602 21.2979C6.93252 21.3034 6.34556 21.3636 5.74515 21.4764C6.41494 23.1798 7.49241 24.3354 8.85799 24.7087C9.74964 24.9524 10.6991 24.8453 11.6444 24.4259C11.4132 23.6776 11.229 22.8848 11.0987 22.0571C9.98463 21.5387 8.7807 21.2857 7.50602 21.2979V21.2979ZM14.7605 25.6195H21.6622C19.5475 28.0219 16.7754 27.9276 14.7605 25.6195Z" fill="white"/>
</svg>
