<svg width="35" height="35" viewBox="0 0 35 35" fill="none" xmlns="http://www.w3.org/2000/svg">
<path d="M5.83337 17.125C5.83337 15.2394 5.83337 14.2966 6.41916 13.7108C7.00495 13.125 7.94776 13.125 9.83337 13.125H25.1667C27.0523 13.125 27.9951 13.125 28.5809 13.7108C29.1667 14.2966 29.1667 15.2394 29.1667 17.125V24.625C29.1667 27.4534 29.1667 28.8676 28.288 29.7463C27.4093 30.625 25.9951 30.625 23.1667 30.625H11.8334C9.00495 30.625 7.59073 30.625 6.71205 29.7463C5.83337 28.8676 5.83337 27.4534 5.83337 24.625V17.125Z" stroke="white" stroke-width="2"/>
<path d="M23.3334 11.6667V10.2083C23.3334 9.4343 23.3334 9.04728 23.2906 8.72237C22.9953 6.4787 21.2297 4.71316 18.986 4.41778C18.6611 4.375 18.2741 4.375 17.5001 4.375V4.375C16.726 4.375 16.339 4.375 16.0141 4.41778C13.7704 4.71316 12.0049 6.4787 11.7095 8.72237C11.6667 9.04728 11.6667 9.4343 11.6667 10.2083V11.6667" stroke="white" stroke-width="2" stroke-linecap="round"/>
<ellipse cx="17.5" cy="21.8752" rx="2.91667" ry="2.91667" fill="white"/>
</svg>
