<svg width="35" height="35" viewBox="0 0 35 35" fill="none" xmlns="http://www.w3.org/2000/svg">
<path d="M5 29C5 29.5523 5.44772 30 6 30H29C29.5523 30 30 29.5523 30 29V24.75C30 24.1977 29.5523 23.75 29 23.75H6C5.44772 23.75 5 24.1977 5 24.75V29ZM5 19.65C5 20.2023 5.44772 20.65 6 20.65H29C29.5523 20.65 30 20.2023 30 19.65V15.4C30 14.8477 29.5523 14.4 29 14.4H6C5.44772 14.4 5 14.8477 5 15.4V19.65ZM5 10.25C5 10.8023 5.44772 11.25 6 11.25H29C29.5523 11.25 30 10.8023 30 10.25V6C30 5.44772 29.5523 5 29 5H6C5.44772 5 5 5.44772 5 6V10.25Z" fill="white" stroke="white" stroke-width="2"/>
</svg>
