<svg width="20" height="30" viewBox="0 0 20 30" fill="none" xmlns="http://www.w3.org/2000/svg">
<path d="M7.27271 25.9091H12.7273V24.5455H7.27271V25.9091ZM3.1818 20.4545H16.8182V6.81818H3.1818V20.4545ZM3.1818 30C2.4318 30 1.78998 29.7332 1.25635 29.1995C0.721801 28.665 0.454529 28.0227 0.454529 27.2727V2.72727C0.454529 1.97727 0.721801 1.335 1.25635 0.800455C1.78998 0.266818 2.4318 0 3.1818 0H16.8182C17.5682 0 18.2104 0.266818 18.745 0.800455C19.2786 1.335 19.5454 1.97727 19.5454 2.72727V27.2727C19.5454 28.0227 19.2786 28.665 18.745 29.1995C18.2104 29.7332 17.5682 30 16.8182 30H3.1818ZM3.1818 4.09091H16.8182V2.72727H3.1818V4.09091ZM3.1818 23.1818V27.2727H16.8182V23.1818H3.1818Z" fill="white"/>
</svg>
