<svg width="35" height="35" viewBox="0 0 35 35" fill="none" xmlns="http://www.w3.org/2000/svg">
<path d="M17.5 5L15 7.5H5V23.75H8.75V22.5H6.25V8.75H26.25V12.5H27.5V7.5V5H17.5ZM18.3081 6.25H26.25V7.5H17.0581L18.3081 6.25ZM10 13.75V30H30V13.75H10ZM11.25 15H28.75V28.75H11.25V15ZM12.5 16.25V17.5H13.75V16.25H12.5ZM26.25 16.25V17.5H27.5V16.25H26.25ZM16.25 17.0215V26.7285L17.1973 26.1621L24.3408 21.875L16.25 17.0215ZM12.5 18.75V20H13.75V18.75H12.5ZM26.25 18.75V20H27.5V18.75H26.25ZM17.5 19.231L21.9067 21.875L17.5 24.519V19.231ZM12.5 21.25V22.5H13.75V21.25H12.5ZM26.25 21.25V22.5H27.5V21.25H26.25ZM12.5 23.75V25H13.75V23.75H12.5ZM26.25 23.75V25H27.5V23.75H26.25ZM12.5 26.25V27.5H13.75V26.25H12.5ZM26.25 26.25V27.5H27.5V26.25H26.25Z" fill="white"/>
</svg>
