<svg width="22" height="22" viewBox="0 0 22 22" fill="none" xmlns="http://www.w3.org/2000/svg">
<path d="M8.89278 4.36389C9.74519 2.23883 10.1714 1.1763 10.8638 1.02904C11.0459 0.99032 11.2341 0.99032 11.4162 1.02904C12.1086 1.1763 12.5348 2.23883 13.3872 4.36389C13.872 5.57237 14.1143 6.17661 14.5679 6.58759C14.6951 6.70286 14.8332 6.80553 14.9802 6.89414C15.5044 7.21008 16.1587 7.26868 17.4675 7.38589C19.6829 7.5843 20.7906 7.6835 21.1289 8.31509C21.1989 8.4459 21.2466 8.58753 21.2698 8.73409C21.3819 9.44173 20.5676 10.1826 18.9389 11.6644L18.4867 12.0758C17.7252 12.7686 17.3445 13.115 17.1243 13.5472C16.9922 13.8065 16.9036 14.0858 16.8621 14.3738C16.7929 14.854 16.9044 15.3565 17.1274 16.3614L17.2071 16.7205C17.6069 18.5227 17.8069 19.4239 17.5573 19.8668C17.3331 20.2647 16.9202 20.5194 16.464 20.5412C15.9562 20.5654 15.2406 19.9823 13.8095 18.8162C12.8666 18.0479 12.3952 17.6637 11.8719 17.5137C11.3936 17.3765 10.8864 17.3765 10.4082 17.5137C9.8848 17.6637 9.41337 18.0479 8.4705 18.8162C7.03939 19.9823 6.32383 20.5654 5.816 20.5412C5.35984 20.5194 4.9469 20.2647 4.72272 19.8668C4.47314 19.4239 4.67307 18.5227 5.07294 16.7205L5.1526 16.3614C5.37558 15.3565 5.48706 14.854 5.41788 14.3738C5.37638 14.0858 5.2878 13.8065 5.15571 13.5472C4.9355 13.115 4.55478 12.7686 3.79335 12.0758L3.34107 11.6644C1.7124 10.1826 0.89806 9.44173 1.01021 8.73409C1.03343 8.58753 1.08107 8.4459 1.15112 8.31509C1.48939 7.6835 2.59711 7.5843 4.81254 7.38589C6.12126 7.26868 6.77562 7.21008 7.29981 6.89414C7.44684 6.80553 7.58492 6.70286 7.71213 6.58759C8.16565 6.17661 8.40803 5.57237 8.89278 4.36389Z" stroke="#FAC014"/>
<path fill-rule="evenodd" clip-rule="evenodd" d="M11 1C10.9544 1.00484 10.9089 1.01205 10.8638 1.02164C10.1714 1.1689 9.74519 2.23143 8.89278 4.35649C8.40803 5.56497 8.16565 6.16921 7.71213 6.58018C7.58492 6.69546 7.44684 6.79812 7.29981 6.88674C6.77562 7.20268 6.12126 7.26128 4.81254 7.37848H4.81254C2.59711 7.57689 1.48939 7.6761 1.15112 8.30769C1.08107 8.4385 1.03343 8.58013 1.01021 8.72669C0.89806 9.43433 1.7124 10.1752 3.34107 11.657L3.79335 12.0684C4.55478 12.7612 4.9355 13.1075 5.15571 13.5398C5.2878 13.7991 5.37638 14.0784 5.41788 14.3664C5.48706 14.8466 5.37558 15.3491 5.1526 16.354L5.07294 16.7131C4.67307 18.5153 4.47314 19.4165 4.72272 19.8594C4.9469 20.2573 5.35984 20.512 5.816 20.5338C6.32383 20.558 7.03939 19.9749 8.47049 18.8088L8.4705 18.8088C9.41337 18.0405 9.8848 17.6563 10.4082 17.5063C10.602 17.4507 10.8005 17.4177 11 17.4071V1Z" fill="#FAC014"/>
<path d="M10.8638 1.02164L10.7598 0.532576L10.7598 0.532576L10.8638 1.02164ZM11 1H11.5V0.444174L10.9473 0.502788L11 1ZM8.89278 4.35649L9.35684 4.54263L9.35684 4.54263L8.89278 4.35649ZM7.71213 6.58018L7.37638 6.20968L7.37638 6.20968L7.71213 6.58018ZM7.29981 6.88674L7.0417 6.45851L7.0417 6.45851L7.29981 6.88674ZM4.81254 7.37848V7.87848H4.83489L4.85714 7.87649L4.81254 7.37848ZM4.81254 7.37848V6.87848H4.79019L4.76794 6.88048L4.81254 7.37848ZM1.15112 8.30769L0.71036 8.07163L0.71036 8.07163L1.15112 8.30769ZM1.01021 8.72669L0.516369 8.64842L0.516369 8.64842L1.01021 8.72669ZM3.34107 11.657L3.00459 12.0268L3.00459 12.0268L3.34107 11.657ZM3.79335 12.0684L4.12982 11.6986L4.12982 11.6986L3.79335 12.0684ZM5.15571 13.5398L5.60123 13.3129L5.60123 13.3129L5.15571 13.5398ZM5.41788 14.3664L5.91277 14.2951L5.91277 14.2951L5.41788 14.3664ZM5.1526 16.354L4.66447 16.2457L4.66447 16.2457L5.1526 16.354ZM5.07294 16.7131L5.56107 16.8214L5.56107 16.8214L5.07294 16.7131ZM4.72272 19.8594L5.15832 19.614L5.15832 19.614L4.72272 19.8594ZM5.816 20.5338L5.83986 20.0343L5.83985 20.0343L5.816 20.5338ZM8.47049 18.8088L8.78633 19.1964L8.80605 19.1804L8.82404 19.1624L8.47049 18.8088ZM8.4705 18.8088L8.15465 18.4212L8.13493 18.4373L8.11695 18.4552L8.4705 18.8088ZM10.4082 17.5063L10.2703 17.0257L10.2703 17.0257L10.4082 17.5063ZM11 17.4071L11.0264 17.9064L11.5 17.8814V17.4071H11ZM10.9678 1.5107C10.9959 1.50473 11.0243 1.50023 11.0527 1.49721L10.9473 0.502788C10.8844 0.50945 10.8219 0.51938 10.7598 0.532576L10.9678 1.5107ZM9.35684 4.54263C9.78812 3.46743 10.0952 2.70413 10.3773 2.18671C10.6701 1.64959 10.8561 1.53446 10.9678 1.5107L10.7598 0.532576C10.1791 0.656078 9.80579 1.14585 9.49929 1.70806C9.18205 2.28999 8.84984 3.12048 8.42872 4.17034L9.35684 4.54263ZM8.04788 6.95069C8.33657 6.68908 8.54383 6.37679 8.73738 5.99215C8.92699 5.61534 9.11756 5.13914 9.35684 4.54263L8.42872 4.17034C8.18324 4.78231 8.01025 5.21247 7.8441 5.54265C7.6819 5.86499 7.54122 6.06031 7.37638 6.20968L8.04788 6.95069ZM7.55791 7.31497C7.73262 7.20967 7.89672 7.08767 8.04788 6.95069L7.37638 6.20968C7.27313 6.30325 7.16105 6.38658 7.0417 6.45851L7.55791 7.31497ZM4.85714 7.87649C5.50324 7.81863 6.01843 7.7729 6.43665 7.69964C6.86323 7.62491 7.22381 7.51634 7.55791 7.31497L7.0417 6.45851C6.85162 6.57307 6.62293 6.65178 6.2641 6.71464C5.89692 6.77896 5.43056 6.82114 4.76794 6.88048L4.85714 7.87649ZM4.81254 7.87848H4.81254V6.87848H4.81254V7.87848ZM1.59189 8.54376C1.64892 8.43728 1.80828 8.29341 2.38329 8.16941C2.94188 8.04896 3.73525 7.97697 4.85714 7.87649L4.76794 6.88048C3.6744 6.97841 2.8062 7.05523 2.1725 7.19188C1.55523 7.32499 0.9916 7.54652 0.71036 8.07163L1.59189 8.54376ZM1.50404 8.80495C1.51852 8.71359 1.54822 8.6253 1.59189 8.54376L0.71036 8.07163C0.613916 8.2517 0.548343 8.44667 0.516369 8.64842L1.50404 8.80495ZM3.67755 11.2871C2.8526 10.5366 2.27046 10.0057 1.90254 9.57622C1.52462 9.13511 1.48494 8.92551 1.50404 8.80495L0.516369 8.64842C0.42333 9.2355 0.734744 9.75017 1.14313 10.2268C1.5615 10.7152 2.20087 11.2956 3.00459 12.0268L3.67755 11.2871ZM4.12982 11.6986L3.67755 11.2871L3.00459 12.0268L3.45687 12.4383L4.12982 11.6986ZM5.60123 13.3129C5.3297 12.7799 4.86228 12.365 4.12982 11.6986L3.45687 12.4383C4.24728 13.1574 4.54129 13.4352 4.71019 13.7668L5.60123 13.3129ZM5.91277 14.2951C5.86345 13.9528 5.7582 13.621 5.60123 13.3129L4.71019 13.7668C4.81741 13.9773 4.8893 14.2039 4.92299 14.4377L5.91277 14.2951ZM5.64073 16.4623C5.85522 15.4956 5.99807 14.8872 5.91277 14.2951L4.92299 14.4377C4.97605 14.806 4.89593 15.2025 4.66447 16.2457L5.64073 16.4623ZM5.56107 16.8214L5.64073 16.4623L4.66447 16.2457L4.58481 16.6048L5.56107 16.8214ZM5.15832 19.614C5.1234 19.552 5.08081 19.3704 5.14973 18.8633C5.215 18.3831 5.35908 17.7318 5.56107 16.8214L4.58481 16.6048C4.38693 17.4967 4.2311 18.197 4.15884 18.7286C4.09022 19.2335 4.07246 19.7239 4.28711 20.1049L5.15832 19.614ZM5.83985 20.0343C5.55549 20.0208 5.29808 19.862 5.15832 19.614L4.28711 20.1049C4.59573 20.6526 5.16419 21.0032 5.79215 21.0332L5.83985 20.0343ZM8.15464 18.4212C7.43174 19.0103 6.91434 19.4313 6.51449 19.7052C6.09232 19.9943 5.91093 20.0377 5.83986 20.0343L5.79215 21.0332C6.22891 21.0541 6.6592 20.8181 7.07954 20.5302C7.5222 20.2271 8.07813 19.7735 8.78633 19.1964L8.15464 18.4212ZM8.11695 18.4552L8.11694 18.4553L8.82404 19.1624L8.82405 19.1624L8.11695 18.4552ZM10.2703 17.0257C9.93469 17.1219 9.6345 17.2888 9.30988 17.5161C8.99033 17.7398 8.62048 18.0416 8.15465 18.4212L8.78635 19.1964C9.26339 18.8077 9.60069 18.5332 9.88341 18.3353C10.1611 18.1409 10.3583 18.0407 10.546 17.9869L10.2703 17.0257ZM10.9736 16.9078C10.7366 16.9203 10.5006 16.9596 10.2703 17.0257L10.546 17.9869C10.7033 17.9418 10.8645 17.915 11.0264 17.9064L10.9736 16.9078ZM11.5 17.4071V1H10.5V17.4071H11.5Z" fill="#FAC014"/>
</svg>
