<svg width="23" height="22" viewBox="0 0 23 22" fill="none" xmlns="http://www.w3.org/2000/svg">
<path d="M9.2733 4.59338C10.1257 2.46832 10.5519 1.40579 11.2444 1.25853C11.4264 1.21981 11.6146 1.21981 11.7967 1.25853C12.4891 1.40579 12.9153 2.46832 13.7677 4.59338C14.2525 5.80186 14.4949 6.4061 14.9484 6.81708C15.0756 6.93235 15.2137 7.03502 15.3607 7.12363C15.8849 7.43957 16.5393 7.49817 17.848 7.61538C20.0634 7.81379 21.1711 7.91299 21.5094 8.54459C21.5795 8.67539 21.6271 8.81702 21.6503 8.96358C21.7625 9.67122 20.9481 10.4121 19.3195 11.8939L18.8672 12.3053C18.1057 12.9981 17.725 13.3444 17.5048 13.7767C17.3727 14.036 17.2841 14.3153 17.2426 14.6033C17.1735 15.0835 17.2849 15.586 17.5079 16.5909L17.5876 16.95C17.9875 18.7522 18.1874 19.6534 17.9378 20.0963C17.7136 20.4942 17.3007 20.7489 16.8445 20.7707C16.3367 20.7949 15.6211 20.2118 14.19 19.0457C13.2472 18.2774 12.7757 17.8932 12.2524 17.7432C11.7741 17.606 11.2669 17.606 10.7887 17.7432C10.2653 17.8932 9.79389 18.2774 8.85102 19.0457C7.41991 20.2118 6.70436 20.7949 6.19653 20.7707C5.74037 20.7489 5.32742 20.4942 5.10324 20.0963C4.85366 19.6534 5.05359 18.7522 5.45346 16.95L5.53313 16.5909C5.7561 15.586 5.86759 15.0835 5.7984 14.6033C5.7569 14.3153 5.66833 14.036 5.53623 13.7767C5.31602 13.3444 4.9353 12.9981 4.17387 12.3053L3.72159 11.8939C2.09292 10.4121 1.27858 9.67122 1.39073 8.96358C1.41396 8.81702 1.46159 8.67539 1.53165 8.54459C1.86992 7.91299 2.97763 7.81379 5.19307 7.61538C6.50179 7.49817 7.15615 7.43957 7.68033 7.12363C7.82736 7.03502 7.96545 6.93235 8.09265 6.81708C8.54618 6.4061 8.78855 5.80186 9.2733 4.59338Z" fill="#FAC014" stroke="#FAC014"/>
</svg>
