<svg width="22" height="22" viewBox="0 0 22 22" fill="none" xmlns="http://www.w3.org/2000/svg">
<path d="M8.3933 4.59338C9.24571 2.46832 9.67191 1.40579 10.3644 1.25853C10.5464 1.21981 10.7346 1.21981 10.9167 1.25853C11.6091 1.40579 12.0353 2.46832 12.8877 4.59338C13.3725 5.80186 13.6149 6.4061 14.0684 6.81708C14.1956 6.93235 14.3337 7.03502 14.4807 7.12364C15.0049 7.43957 15.6593 7.49817 16.968 7.61538C19.1834 7.81379 20.2911 7.91299 20.6294 8.54459C20.6995 8.67539 20.7471 8.81702 20.7703 8.96358C20.8825 9.67122 20.0681 10.4121 18.4394 11.8939L17.9872 12.3053C17.2257 12.9981 16.845 13.3444 16.6248 13.7767C16.4927 14.036 16.4041 14.3153 16.3626 14.6033C16.2935 15.0835 16.4049 15.586 16.6279 16.5909L16.7076 16.95C17.1074 18.7522 17.3074 19.6534 17.0578 20.0963C16.8336 20.4942 16.4207 20.7489 15.9645 20.7707C15.4567 20.7949 14.7411 20.2118 13.31 19.0457C12.3672 18.2774 11.8957 17.8932 11.3724 17.7432C10.8941 17.606 10.3869 17.606 9.90867 17.7432C9.38532 17.8932 8.91389 18.2774 7.97102 19.0457C6.53991 20.2118 5.82435 20.7949 5.31652 20.7707C4.86036 20.7489 4.44742 20.4942 4.22324 20.0963C3.97366 19.6534 4.17359 18.7522 4.57345 16.95L4.65312 16.5909C4.87609 15.586 4.98758 15.0835 4.9184 14.6033C4.87689 14.3153 4.78832 14.036 4.65623 13.7767C4.43601 13.3444 4.0553 12.9981 3.29386 12.3053L2.84159 11.8939C1.21292 10.4121 0.398579 9.67122 0.510725 8.96358C0.533951 8.81702 0.581584 8.67539 0.651643 8.54459C0.989912 7.91299 2.09763 7.81379 4.31306 7.61538C5.62178 7.49817 6.27614 7.43957 6.80033 7.12364C6.94735 7.03502 7.08544 6.93235 7.21265 6.81708C7.66617 6.4061 7.90855 5.80186 8.3933 4.59338Z" stroke="#FAC014"/>
</svg>
