<svg width="28" height="28" viewBox="0 0 28 28" fill="none" xmlns="http://www.w3.org/2000/svg">
<path d="M16 17L12 21L16 25" stroke="white" stroke-width="2"/>
<path d="M20.0622 10.5C20.6766 11.5641 21 12.7712 21 14C21 15.2288 20.6766 16.4359 20.0622 17.5C19.4478 18.5641 18.5641 19.4478 17.5 20.0622C16.4359 20.6766 15.2288 21 14 21" stroke="white" stroke-width="2" stroke-linecap="round"/>
<path d="M12 11L16 7L12 3" stroke="white" stroke-width="2"/>
<path d="M7.93782 17.5C7.32344 16.4359 7 15.2288 7 14C7 12.7712 7.32344 11.5641 7.93782 10.5C8.5522 9.43587 9.43587 8.5522 10.5 7.93782C11.5641 7.32344 12.7712 7 14 7" stroke="white" stroke-width="2" stroke-linecap="round"/>
</svg>
