<svg width="36" height="28" viewBox="0 0 36 28" fill="none" xmlns="http://www.w3.org/2000/svg">
<g clip-path="url(#clip0_76_1442)">
<mask id="mask0_76_1442" style="mask-type:luminance" maskUnits="userSpaceOnUse" x="0" y="0" width="36" height="28">
<path d="M35.3334 0.875H0.333252V27.125H35.3334V0.875Z" fill="white"/>
</mask>
<g mask="url(#mask0_76_1442)">
<path d="M50.2087 0.875H0.333252V2.89425H50.2087V0.875Z" fill="#BD3D44"/>
<path d="M50.2087 4.91357H0.333252V6.93283H50.2087V4.91357Z" fill="#BD3D44"/>
<path d="M50.2087 8.95215H0.333252V10.9714H50.2087V8.95215Z" fill="#BD3D44"/>
<path d="M50.2087 12.9907H0.333252V15.01H50.2087V12.9907Z" fill="#BD3D44"/>
<path d="M50.2087 17.0288H0.333252V19.0481H50.2087V17.0288Z" fill="#BD3D44"/>
<path d="M50.2087 21.0674H0.333252V23.0866H50.2087V21.0674Z" fill="#BD3D44"/>
<path d="M50.2087 25.106H0.333252V27.1252H50.2087V25.106Z" fill="#BD3D44"/>
<path d="M50.2087 2.89404H0.333252V4.91329H50.2087V2.89404Z" fill="white"/>
<path d="M50.2087 6.93262H0.333252V8.95187H50.2087V6.93262Z" fill="white"/>
<path d="M50.2087 10.9712H0.333252V12.9904H50.2087V10.9712Z" fill="white"/>
<path d="M50.2087 15.0098H0.333252V17.029H50.2087V15.0098Z" fill="white"/>
<path d="M50.2087 19.0479H0.333252V21.0671H50.2087V19.0479Z" fill="white"/>
<path d="M50.2087 23.0864H0.333252V25.1057H50.2087V23.0864Z" fill="white"/>
<path d="M20.2833 0.875H0.333252V15.0095H20.2833V0.875Z" fill="#192F5D"/>
<path fill-rule="evenodd" clip-rule="evenodd" d="M1.99574 1.47998L2.17726 2.03865H2.76467L2.28944 2.38392L2.47097 2.94258L1.99574 2.59731L1.52051 2.94258L1.70204 2.38392L1.22681 2.03865H1.81422L1.99574 1.47998Z" fill="white"/>
<path fill-rule="evenodd" clip-rule="evenodd" d="M5.32069 1.47998L5.50221 2.03865H6.08962L5.61439 2.38392L5.79592 2.94258L5.32069 2.59731L4.84546 2.94258L5.02699 2.38392L4.55176 2.03865H5.13917L5.32069 1.47998Z" fill="white"/>
<path fill-rule="evenodd" clip-rule="evenodd" d="M8.64588 1.47998L8.8274 2.03865H9.41481L8.93958 2.38392L9.12111 2.94258L8.64588 2.59731L8.17065 2.94258L8.35218 2.38392L7.87695 2.03865H8.46436L8.64588 1.47998Z" fill="white"/>
<path fill-rule="evenodd" clip-rule="evenodd" d="M11.9708 1.47998L12.1524 2.03865H12.7398L12.2645 2.38392L12.4461 2.94258L11.9708 2.59731L11.4956 2.94258L11.6771 2.38392L11.2019 2.03865H11.7893L11.9708 1.47998Z" fill="white"/>
<path fill-rule="evenodd" clip-rule="evenodd" d="M15.2958 1.47998L15.4773 2.03865H16.0647L15.5895 2.38392L15.771 2.94258L15.2958 2.59731L14.8206 2.94258L15.0021 2.38392L14.5269 2.03865H15.1143L15.2958 1.47998Z" fill="white"/>
<path fill-rule="evenodd" clip-rule="evenodd" d="M18.621 1.47998L18.8025 2.03865H19.3899L18.9147 2.38392L19.0962 2.94258L18.621 2.59731L18.1458 2.94258L18.3273 2.38392L17.8521 2.03865H18.4395L18.621 1.47998Z" fill="white"/>
<path fill-rule="evenodd" clip-rule="evenodd" d="M3.65833 2.89355L3.83986 3.45222H4.42727L3.95203 3.79749L4.13357 4.35616L3.65833 4.01089L3.1831 4.35616L3.36463 3.79749L2.8894 3.45222H3.47681L3.65833 2.89355Z" fill="white"/>
<path fill-rule="evenodd" clip-rule="evenodd" d="M6.98329 2.89355L7.16481 3.45222H7.75222L7.27699 3.79749L7.45852 4.35616L6.98329 4.01089L6.50806 4.35616L6.68959 3.79749L6.21436 3.45222H6.80177L6.98329 2.89355Z" fill="white"/>
<path fill-rule="evenodd" clip-rule="evenodd" d="M10.3082 2.89355L10.4898 3.45222H11.0772L10.6019 3.79749L10.7835 4.35616L10.3082 4.01089L9.83301 4.35616L10.0145 3.79749L9.53931 3.45222H10.1267L10.3082 2.89355Z" fill="white"/>
<path fill-rule="evenodd" clip-rule="evenodd" d="M13.6334 2.89355L13.815 3.45222H14.4024L13.9271 3.79749L14.1087 4.35616L13.6334 4.01089L13.1582 4.35616L13.3397 3.79749L12.8645 3.45222H13.4519L13.6334 2.89355Z" fill="white"/>
<path fill-rule="evenodd" clip-rule="evenodd" d="M16.9584 2.89355L17.1399 3.45222H17.7273L17.2521 3.79749L17.4336 4.35616L16.9584 4.01089L16.4832 4.35616L16.6647 3.79749L16.1895 3.45222H16.7769L16.9584 2.89355Z" fill="white"/>
<path fill-rule="evenodd" clip-rule="evenodd" d="M1.99574 4.30713L2.17726 4.86579H2.76467L2.28944 5.21107L2.47097 5.76973L1.99574 5.42446L1.52051 5.76973L1.70204 5.21107L1.22681 4.86579H1.81422L1.99574 4.30713Z" fill="white"/>
<path fill-rule="evenodd" clip-rule="evenodd" d="M5.32069 4.30713L5.50221 4.86579H6.08962L5.61439 5.21107L5.79592 5.76973L5.32069 5.42446L4.84546 5.76973L5.02699 5.21107L4.55176 4.86579H5.13917L5.32069 4.30713Z" fill="white"/>
<path fill-rule="evenodd" clip-rule="evenodd" d="M8.64588 4.30713L8.8274 4.86579H9.41481L8.93958 5.21107L9.12111 5.76973L8.64588 5.42446L8.17065 5.76973L8.35218 5.21107L7.87695 4.86579H8.46436L8.64588 4.30713Z" fill="white"/>
<path fill-rule="evenodd" clip-rule="evenodd" d="M11.9708 4.30713L12.1524 4.86579H12.7398L12.2645 5.21107L12.4461 5.76973L11.9708 5.42446L11.4956 5.76973L11.6771 5.21107L11.2019 4.86579H11.7893L11.9708 4.30713Z" fill="white"/>
<path fill-rule="evenodd" clip-rule="evenodd" d="M15.2958 4.30713L15.4773 4.86579H16.0647L15.5895 5.21107L15.771 5.76973L15.2958 5.42446L14.8206 5.76973L15.0021 5.21107L14.5269 4.86579H15.1143L15.2958 4.30713Z" fill="white"/>
<path fill-rule="evenodd" clip-rule="evenodd" d="M18.621 4.30713L18.8025 4.86579H19.3899L18.9147 5.21107L19.0962 5.76973L18.621 5.42446L18.1458 5.76973L18.3273 5.21107L17.8521 4.86579H18.4395L18.621 4.30713Z" fill="white"/>
<path fill-rule="evenodd" clip-rule="evenodd" d="M3.65833 5.7207L3.83986 6.27937H4.42727L3.95203 6.62464L4.13357 7.18331L3.65833 6.83804L3.1831 7.18331L3.36463 6.62464L2.8894 6.27937H3.47681L3.65833 5.7207Z" fill="white"/>
<path fill-rule="evenodd" clip-rule="evenodd" d="M6.98329 5.7207L7.16481 6.27937H7.75222L7.27699 6.62464L7.45852 7.18331L6.98329 6.83804L6.50806 7.18331L6.68959 6.62464L6.21436 6.27937H6.80177L6.98329 5.7207Z" fill="white"/>
<path fill-rule="evenodd" clip-rule="evenodd" d="M10.3082 5.7207L10.4898 6.27937H11.0772L10.6019 6.62464L10.7835 7.18331L10.3082 6.83804L9.83301 7.18331L10.0145 6.62464L9.53931 6.27937H10.1267L10.3082 5.7207Z" fill="white"/>
<path fill-rule="evenodd" clip-rule="evenodd" d="M13.6334 5.7207L13.815 6.27937H14.4024L13.9271 6.62464L14.1087 7.18331L13.6334 6.83804L13.1582 7.18331L13.3397 6.62464L12.8645 6.27937H13.4519L13.6334 5.7207Z" fill="white"/>
<path fill-rule="evenodd" clip-rule="evenodd" d="M16.9584 5.7207L17.1399 6.27937H17.7273L17.2521 6.62464L17.4336 7.18331L16.9584 6.83804L16.4832 7.18331L16.6647 6.62464L16.1895 6.27937H16.7769L16.9584 5.7207Z" fill="white"/>
<path fill-rule="evenodd" clip-rule="evenodd" d="M1.99574 7.13379L2.17726 7.69246H2.76467L2.28944 8.03773L2.47097 8.59639L1.99574 8.25112L1.52051 8.59639L1.70204 8.03773L1.22681 7.69246H1.81422L1.99574 7.13379Z" fill="white"/>
<path fill-rule="evenodd" clip-rule="evenodd" d="M5.32069 7.13379L5.50221 7.69246H6.08962L5.61439 8.03773L5.79592 8.59639L5.32069 8.25112L4.84546 8.59639L5.02699 8.03773L4.55176 7.69246H5.13917L5.32069 7.13379Z" fill="white"/>
<path fill-rule="evenodd" clip-rule="evenodd" d="M8.64588 7.13379L8.8274 7.69246H9.41481L8.93958 8.03773L9.12111 8.59639L8.64588 8.25112L8.17065 8.59639L8.35218 8.03773L7.87695 7.69246H8.46436L8.64588 7.13379Z" fill="white"/>
<path fill-rule="evenodd" clip-rule="evenodd" d="M11.9708 7.13379L12.1524 7.69246H12.7398L12.2645 8.03773L12.4461 8.59639L11.9708 8.25112L11.4956 8.59639L11.6771 8.03773L11.2019 7.69246H11.7893L11.9708 7.13379Z" fill="white"/>
<path fill-rule="evenodd" clip-rule="evenodd" d="M15.2958 7.13379L15.4773 7.69246H16.0647L15.5895 8.03773L15.771 8.59639L15.2958 8.25112L14.8206 8.59639L15.0021 8.03773L14.5269 7.69246H15.1143L15.2958 7.13379Z" fill="white"/>
<path fill-rule="evenodd" clip-rule="evenodd" d="M18.621 7.13379L18.8025 7.69246H19.3899L18.9147 8.03773L19.0962 8.59639L18.621 8.25112L18.1458 8.59639L18.3273 8.03773L17.8521 7.69246H18.4395L18.621 7.13379Z" fill="white"/>
<path fill-rule="evenodd" clip-rule="evenodd" d="M3.65833 8.54736L3.83986 9.10603H4.42727L3.95203 9.4513L4.13357 10.01L3.65833 9.6647L3.1831 10.01L3.36463 9.4513L2.8894 9.10603H3.47681L3.65833 8.54736Z" fill="white"/>
<path fill-rule="evenodd" clip-rule="evenodd" d="M6.98329 8.54736L7.16481 9.10603H7.75222L7.27699 9.4513L7.45852 10.01L6.98329 9.6647L6.50806 10.01L6.68959 9.4513L6.21436 9.10603H6.80177L6.98329 8.54736Z" fill="white"/>
<path fill-rule="evenodd" clip-rule="evenodd" d="M10.3082 8.54736L10.4898 9.10603H11.0772L10.6019 9.4513L10.7835 10.01L10.3082 9.6647L9.83301 10.01L10.0145 9.4513L9.53931 9.10603H10.1267L10.3082 8.54736Z" fill="white"/>
<path fill-rule="evenodd" clip-rule="evenodd" d="M13.6334 8.54736L13.815 9.10603H14.4024L13.9271 9.4513L14.1087 10.01L13.6334 9.6647L13.1582 10.01L13.3397 9.4513L12.8645 9.10603H13.4519L13.6334 8.54736Z" fill="white"/>
<path fill-rule="evenodd" clip-rule="evenodd" d="M16.9584 8.54736L17.1399 9.10603H17.7273L17.2521 9.4513L17.4336 10.01L16.9584 9.6647L16.4832 10.01L16.6647 9.4513L16.1895 9.10603H16.7769L16.9584 8.54736Z" fill="white"/>
<path fill-rule="evenodd" clip-rule="evenodd" d="M1.99574 9.96094L2.17726 10.5196H2.76467L2.28944 10.8649L2.47097 11.4235L1.99574 11.0783L1.52051 11.4235L1.70204 10.8649L1.22681 10.5196H1.81422L1.99574 9.96094Z" fill="white"/>
<path fill-rule="evenodd" clip-rule="evenodd" d="M5.32069 9.96094L5.50221 10.5196H6.08962L5.61439 10.8649L5.79592 11.4235L5.32069 11.0783L4.84546 11.4235L5.02699 10.8649L4.55176 10.5196H5.13917L5.32069 9.96094Z" fill="white"/>
<path fill-rule="evenodd" clip-rule="evenodd" d="M8.64588 9.96094L8.8274 10.5196H9.41481L8.93958 10.8649L9.12111 11.4235L8.64588 11.0783L8.17065 11.4235L8.35218 10.8649L7.87695 10.5196H8.46436L8.64588 9.96094Z" fill="white"/>
<path fill-rule="evenodd" clip-rule="evenodd" d="M11.9708 9.96094L12.1524 10.5196H12.7398L12.2645 10.8649L12.4461 11.4235L11.9708 11.0783L11.4956 11.4235L11.6771 10.8649L11.2019 10.5196H11.7893L11.9708 9.96094Z" fill="white"/>
<path fill-rule="evenodd" clip-rule="evenodd" d="M15.2958 9.96094L15.4773 10.5196H16.0647L15.5895 10.8649L15.771 11.4235L15.2958 11.0783L14.8206 11.4235L15.0021 10.8649L14.5269 10.5196H15.1143L15.2958 9.96094Z" fill="white"/>
<path fill-rule="evenodd" clip-rule="evenodd" d="M18.621 9.96094L18.8025 10.5196H19.3899L18.9147 10.8649L19.0962 11.4235L18.621 11.0783L18.1458 11.4235L18.3273 10.8649L17.8521 10.5196H18.4395L18.621 9.96094Z" fill="white"/>
<path fill-rule="evenodd" clip-rule="evenodd" d="M3.65833 11.3745L3.83986 11.9332H4.42727L3.95203 12.2785L4.13357 12.8371L3.65833 12.4918L3.1831 12.8371L3.36463 12.2785L2.8894 11.9332H3.47681L3.65833 11.3745Z" fill="white"/>
<path fill-rule="evenodd" clip-rule="evenodd" d="M6.98329 11.3745L7.16481 11.9332H7.75222L7.27699 12.2785L7.45852 12.8371L6.98329 12.4918L6.50806 12.8371L6.68959 12.2785L6.21436 11.9332H6.80177L6.98329 11.3745Z" fill="white"/>
<path fill-rule="evenodd" clip-rule="evenodd" d="M10.3082 11.3745L10.4898 11.9332H11.0772L10.6019 12.2785L10.7835 12.8371L10.3082 12.4918L9.83301 12.8371L10.0145 12.2785L9.53931 11.9332H10.1267L10.3082 11.3745Z" fill="white"/>
<path fill-rule="evenodd" clip-rule="evenodd" d="M13.6334 11.3745L13.815 11.9332H14.4024L13.9271 12.2785L14.1087 12.8371L13.6334 12.4918L13.1582 12.8371L13.3397 12.2785L12.8645 11.9332H13.4519L13.6334 11.3745Z" fill="white"/>
<path fill-rule="evenodd" clip-rule="evenodd" d="M16.9584 11.3745L17.1399 11.9332H17.7273L17.2521 12.2785L17.4336 12.8371L16.9584 12.4918L16.4832 12.8371L16.6647 12.2785L16.1895 11.9332H16.7769L16.9584 11.3745Z" fill="white"/>
<path fill-rule="evenodd" clip-rule="evenodd" d="M1.99574 12.7876L2.17726 13.3463H2.76467L2.28944 13.6915L2.47097 14.2502L1.99574 13.9049L1.52051 14.2502L1.70204 13.6915L1.22681 13.3463H1.81422L1.99574 12.7876Z" fill="white"/>
<path fill-rule="evenodd" clip-rule="evenodd" d="M5.32069 12.7876L5.50221 13.3463H6.08962L5.61439 13.6915L5.79592 14.2502L5.32069 13.9049L4.84546 14.2502L5.02699 13.6915L4.55176 13.3463H5.13917L5.32069 12.7876Z" fill="white"/>
<path fill-rule="evenodd" clip-rule="evenodd" d="M8.64588 12.7876L8.8274 13.3463H9.41481L8.93958 13.6915L9.12111 14.2502L8.64588 13.9049L8.17065 14.2502L8.35218 13.6915L7.87695 13.3463H8.46436L8.64588 12.7876Z" fill="white"/>
<path fill-rule="evenodd" clip-rule="evenodd" d="M11.9708 12.7876L12.1524 13.3463H12.7398L12.2645 13.6915L12.4461 14.2502L11.9708 13.9049L11.4956 14.2502L11.6771 13.6915L11.2019 13.3463H11.7893L11.9708 12.7876Z" fill="white"/>
<path fill-rule="evenodd" clip-rule="evenodd" d="M15.2958 12.7876L15.4773 13.3463H16.0647L15.5895 13.6915L15.771 14.2502L15.2958 13.9049L14.8206 14.2502L15.0021 13.6915L14.5269 13.3463H15.1143L15.2958 12.7876Z" fill="white"/>
<path fill-rule="evenodd" clip-rule="evenodd" d="M18.621 12.7876L18.8025 13.3463H19.3899L18.9147 13.6915L19.0962 14.2502L18.621 13.9049L18.1458 14.2502L18.3273 13.6915L17.8521 13.3463H18.4395L18.621 12.7876Z" fill="white"/>
</g>
</g>
<defs>
<clipPath id="clip0_76_1442">
<rect width="35" height="26.25" fill="white" transform="translate(0.333252 0.875)"/>
</clipPath>
</defs>
</svg>
