<svg width="35" height="35" viewBox="0 0 35 35" fill="none" xmlns="http://www.w3.org/2000/svg">
<path d="M28.2953 7.30088L28.3637 7.50127L29.1036 9.91444C29.244 10.3726 28.9961 10.8488 28.5422 11.0354L28.4135 11.0789L14.0173 14.9388L28.9935 14.9399C29.503 14.9399 29.9242 15.2941 29.9908 15.7536L30 15.8814V26.5482C30 28.384 28.4678 29.885 26.5342 29.9937L26.3093 30H9.5351C7.57229 30 5.96736 28.5669 5.85117 26.7584L5.84443 26.5482L5.84416 16.0145L5.14392 13.7286C4.6029 11.9639 5.6334 10.126 7.46007 9.52302L7.67433 9.45901L23.7988 5.13461C25.6855 4.6286 27.6506 5.59241 28.2953 7.30088ZM27.9858 16.8215H7.85752V26.5482C7.85752 27.3064 8.43257 27.939 9.19701 28.0853L9.36358 28.1091L9.5351 28.1172H26.3093C27.1779 28.1172 27.8923 27.4998 27.9782 26.7086L27.9869 26.5482L27.9858 16.8215ZM10.2366 10.7305L8.22922 11.2689C7.39427 11.4928 6.88944 12.2705 7.04002 13.0532L7.07897 13.2096L7.54109 14.7169L7.93711 14.6104L10.2366 10.7305ZM16.6198 9.01861L12.9728 9.99671L10.6734 13.8766L14.3204 12.8985L16.6198 9.01861ZM23.0044 7.30634L19.3574 8.28444L17.0579 12.1643L20.7037 11.1866L23.0044 7.30634ZM25.4834 7.01317L23.4425 10.452L26.8896 9.52787L26.4286 8.02025C26.2848 7.55115 25.9274 7.19349 25.4834 7.01317Z" fill="white"/>
</svg>
