<svg width="64" height="64" viewBox="0 0 64 64" fill="none" xmlns="http://www.w3.org/2000/svg">
<g clip-path="url(#clip0_541_7229)">
<path fill-rule="evenodd" clip-rule="evenodd" d="M22.8346 12.9837C25.4536 10.8884 29.3333 12.7531 29.3333 16.1071V47.8922C29.3333 51.2461 25.4536 53.1109 22.8346 51.0157L12.3979 42.6663H8C3.58173 42.6663 0 39.0845 0 34.6663V29.333C0 24.9147 3.58173 21.333 8 21.333H12.3979L22.8346 12.9837ZM24 18.8813L15.7296 25.4976C14.7839 26.2541 13.609 26.6663 12.3979 26.6663H8C6.52725 26.6663 5.33333 27.8602 5.33333 29.333V34.6663C5.33333 36.1391 6.52725 37.333 8 37.333H12.3979C13.609 37.333 14.7839 37.745 15.7296 38.5015L24 45.1181V18.8813Z" fill="white"/>
<rect x="49.9705" y="22.2529" width="5" height="24" rx="2.5" transform="rotate(45 49.9705 22.2529)" fill="white"/>
<rect x="33.2471" y="25.5352" width="5" height="24" rx="2.5" transform="rotate(-45 33.2471 25.5352)" fill="white"/>
</g>
<defs>
<clipPath id="clip0_541_7229">
<rect width="64" height="64" fill="white"/>
</clipPath>
</defs>
</svg>
