<svg width="37" height="37" viewBox="0 0 37 37" fill="none" xmlns="http://www.w3.org/2000/svg">
<g clip-path="url(#clip0_16_122)">
<path d="M21.0908 5.43818C21.5013 4.91845 21.7551 4.26316 21.7551 3.55114C21.7551 1.86867 20.3905 0.5 18.708 0.5C17.0255 0.5 15.6589 1.86867 15.6589 3.55114C15.6589 4.2633 15.8767 4.91845 16.2869 5.43818C15.0308 6.23448 14.1663 7.63615 14.1663 9.23038V12.9425C14.1663 13.5075 14.6825 13.998 15.2475 13.998H22.1769C22.7419 13.998 23.1672 13.5074 23.1672 12.9425V9.23038C23.1671 7.63615 22.3472 6.23434 21.0908 5.43818Z" fill="white"/>
<path d="M11.8479 17.4841V13.7719C11.8479 12.1779 11.0632 10.7759 9.80675 9.97974C10.2172 9.46001 10.4886 8.80473 10.4886 8.09271C10.4886 6.41024 9.13278 5.04156 7.4503 5.04156C5.76783 5.04156 4.40557 6.41037 4.40557 8.09284C4.40557 8.805 4.65855 9.46015 5.06877 9.97988C3.81247 10.7762 2.98331 12.1779 2.98331 13.7721V17.4842C2.98331 18.0492 3.43348 18.4985 3.99835 18.4985H10.9278C11.4928 18.4983 11.8479 18.0491 11.8479 17.4841Z" fill="white"/>
<path d="M32.3106 9.97992C32.7208 9.4602 32.9933 8.80491 32.9933 8.09289C32.9933 6.41042 31.6378 5.04175 29.9553 5.04175C28.2729 5.04175 26.9108 6.41042 26.9108 8.09289C26.9108 8.80504 27.1621 9.4602 27.5725 9.97992C26.3162 10.7762 25.4854 12.1779 25.4854 13.7721V17.4843C25.4854 18.0493 25.9389 18.4985 26.5039 18.4985H33.4333C33.9984 18.4985 34.3499 18.0493 34.3499 17.4843V13.7721C34.3499 12.1779 33.5667 10.7761 32.3106 9.97992Z" fill="white"/>
<path d="M21.0908 27.9748C21.5013 27.4551 21.7551 26.8 21.7551 26.0879C21.7551 24.4055 20.3905 23.0368 18.708 23.0368C17.0255 23.0368 15.6589 24.4055 15.6589 26.0879C15.6589 26.8 15.8767 27.4553 16.2869 27.975C15.0308 28.7713 14.1663 30.173 14.1663 31.7672V35.4793C14.1663 36.0444 14.6825 36.5 15.2475 36.5H22.1769C22.7419 36.5 23.1672 36.0442 23.1672 35.4793V31.7672C23.1671 30.1728 22.3472 28.7713 21.0908 27.9748ZM18.7121 25.0824C19.2665 25.0824 19.7176 25.5336 19.7176 26.0879C19.7176 26.6425 19.2665 27.0934 18.7121 27.0934C18.1577 27.0934 17.7066 26.6423 17.7066 26.0879C17.7066 25.5336 18.1576 25.0824 18.7121 25.0824ZM21.1215 34.4543H16.2119V31.7672C16.2119 30.4206 17.3202 29.3252 18.6668 29.3252C20.0131 29.3252 21.1215 30.4206 21.1215 31.7672V34.4543Z" fill="white"/>
<path d="M19.6213 19.3956V16.0061C19.6213 15.4411 19.1635 14.9833 18.5985 14.9833C18.0335 14.9833 17.5757 15.4411 17.5757 16.0061V19.3956C17.5757 19.9606 18.0335 20.4184 18.5985 20.4184C19.1634 20.4184 19.6213 19.9605 19.6213 19.3956Z" fill="white"/>
<path d="M8.75801 19.6168C8.34765 19.2285 7.70068 19.2461 7.31188 19.6562C6.92348 20.0664 6.94121 20.7138 7.35129 21.1023L12.4939 25.9719C12.6918 26.1592 12.9446 26.252 13.197 26.252C13.468 26.252 13.7387 26.1448 13.9399 25.9325C14.3283 25.5223 14.3106 24.8749 13.9005 24.4864L8.75801 19.6168Z" fill="white"/>
<path d="M28.6566 19.6023L23.5281 24.4831C23.1188 24.8725 23.1029 25.52 23.4922 25.9291C23.6932 26.1405 23.963 26.2469 24.2333 26.2469C24.4865 26.2469 24.7403 26.1533 24.9382 25.965L30.0668 21.0842C30.476 20.6948 30.492 20.0475 30.1026 19.6383C29.7133 19.2288 29.0658 19.2131 28.6566 19.6023Z" fill="white"/>
</g>
<defs>
<clipPath id="clip0_16_122">
<rect width="36" height="36" fill="white" transform="translate(0.666687 0.5)"/>
</clipPath>
</defs>
</svg>
