<svg width="24" height="6" viewBox="0 0 24 6" fill="none" xmlns="http://www.w3.org/2000/svg">
<path d="M2.66667 0.333984C4.13943 0.333984 5.33333 1.52785 5.33333 3.00065C5.33333 4.47345 4.13943 5.66732 2.66667 5.66732C1.19391 5.66732 0 4.47345 0 3.00065C0 1.52785 1.19391 0.333984 2.66667 0.333984Z" fill="white"/>
<path d="M11.9997 0.333984C13.4725 0.333984 14.6663 1.52785 14.6663 3.00065C14.6663 4.47345 13.4725 5.66732 11.9997 5.66732C10.5269 5.66732 9.33301 4.47345 9.33301 3.00065C9.33301 1.52785 10.5269 0.333984 11.9997 0.333984Z" fill="white"/>
<path d="M24.0003 3.00065C24.0003 1.52785 22.8065 0.333984 21.3337 0.333984C19.8609 0.333984 18.667 1.52785 18.667 3.00065C18.667 4.47345 19.8609 5.66732 21.3337 5.66732C22.8065 5.66732 24.0003 4.47345 24.0003 3.00065Z" fill="white"/>
</svg>
