<svg width="35" height="35" viewBox="0 0 35 35" fill="none" xmlns="http://www.w3.org/2000/svg">
<path d="M28.1836 8.426C29.1667 9.89731 29.1667 11.9455 29.1667 16.0418C29.1667 20.1382 29.1667 22.1864 28.1836 23.6577C27.758 24.2946 27.2111 24.8415 26.5742 25.2671C25.2889 26.1259 23.5634 26.2345 20.4167 26.2482V26.2502L18.8044 29.4748C18.267 30.5496 16.7331 30.5496 16.1957 29.4748L14.5834 26.2502V26.2482C11.4367 26.2345 9.71118 26.1259 8.42588 25.2671C7.78894 24.8415 7.24206 24.2946 6.81647 23.6577C5.83337 22.1864 5.83337 20.1382 5.83337 16.0418C5.83337 11.9455 5.83337 9.89731 6.81647 8.426C7.24206 7.78906 7.78894 7.24218 8.42588 6.81659C9.89718 5.8335 11.9454 5.8335 16.0417 5.8335H18.9584C23.0547 5.8335 25.1029 5.8335 26.5742 6.81659C27.2111 7.24218 27.758 7.78906 28.1836 8.426Z" stroke="white" stroke-width="2" stroke-linecap="round" stroke-linejoin="round"/>
<path d="M13.125 13.125L21.875 13.125" stroke="white" stroke-width="2" stroke-linecap="round" stroke-linejoin="round"/>
<path d="M13.125 18.9585H17.5" stroke="white" stroke-width="2" stroke-linecap="round" stroke-linejoin="round"/>
</svg>
