<svg width="37" height="37" viewBox="0 0 37 37" fill="none" xmlns="http://www.w3.org/2000/svg">
<path d="M35.7568 9.4347C36.5255 8.66591 36.5255 7.42403 35.7568 6.65524L30.1781 1.07659C29.4093 0.307803 28.1674 0.307803 27.3986 1.07659L18.5477 9.92752L10.8795 2.25934C9.34197 0.721766 6.83848 0.721766 5.3009 2.25934L1.55552 6.00472C0.0179429 7.5423 0.0179429 10.0458 1.55552 11.5834L9.22369 19.2515L0.333344 28.1419V36.5H8.69145L17.6015 27.5899L25.2697 35.2581C27.1424 37.1308 29.6656 36.4409 30.8483 35.2581L34.5937 31.5127C36.1313 29.9752 36.1313 27.4717 34.5937 25.9341L26.9255 18.2659L35.7568 9.4347ZM4.3547 8.78419L8.08037 5.03881L10.5839 7.5423L8.25778 9.88809L11.0372 12.6676L13.383 10.3218L15.7485 12.6873L12.0032 16.4326L4.3547 8.78419ZM26.4919 23.4503L24.1461 25.7961L26.9255 28.5756L29.2713 26.2298L31.7748 28.7333L28.0294 32.4786L20.3613 24.8105L24.1067 21.0651L26.4919 23.4503ZM7.05532 32.5575H4.27585V29.778L23.2196 10.8343L25.7822 13.3969L25.9991 13.6138L7.05532 32.5575ZM25.9991 8.03511L28.7785 5.25565L31.558 8.03511L28.7785 10.8146L25.9991 8.03511Z" fill="white"/>
</svg>
