<svg width="35" height="35" viewBox="0 0 35 35" fill="none" xmlns="http://www.w3.org/2000/svg">
<path fill-rule="evenodd" clip-rule="evenodd" d="M30.625 17.5C30.625 24.7487 24.7487 30.625 17.5 30.625C10.2513 30.625 4.375 24.7487 4.375 17.5C4.375 10.2513 10.2513 4.375 17.5 4.375C24.7487 4.375 30.625 10.2513 30.625 17.5ZM10.9596 24.0404C10.569 23.6499 10.569 23.0168 10.9596 22.6262L16.0858 17.5L10.9596 12.3738C10.569 11.9832 10.569 11.3501 10.9596 10.9596C11.3501 10.569 11.9832 10.569 12.3738 10.9596L17.5 16.0858L22.6262 10.9596C23.0168 10.569 23.6499 10.569 24.0404 10.9596C24.431 11.3501 24.431 11.9832 24.0404 12.3738L18.9142 17.5L24.0404 22.6262C24.431 23.0168 24.431 23.6499 24.0404 24.0404C23.6499 24.431 23.0168 24.431 22.6262 24.0404L17.5 18.9142L12.3738 24.0404C11.9832 24.431 11.3501 24.431 10.9596 24.0404Z" fill="#E3170A"/>
</svg>
