<svg width="45" height="45" viewBox="0 0 45 45" fill="none" xmlns="http://www.w3.org/2000/svg">
<path d="M11.2819 27.386C11.273 27.3949 11.2641 27.4038 11.2553 27.4125C11.0928 27.5747 10.949 27.7182 10.8477 27.8972C10.7463 28.0762 10.6972 28.2734 10.6418 28.4961C10.6381 28.511 10.6344 28.526 10.6306 28.5412L9.09204 34.6953L9.08536 34.722C9.04612 34.8787 9.00421 35.046 8.99046 35.1865C8.97532 35.3413 8.97885 35.6023 9.18826 35.8117C9.39767 36.0211 9.65873 36.0247 9.81346 36.0095C9.95398 35.9958 10.1213 35.9539 10.278 35.9146L10.3047 35.908L16.4588 34.3694C16.474 34.3656 16.489 34.3619 16.5039 34.3582C16.7266 34.3028 16.9238 34.2537 17.1028 34.1523L16.8564 33.7172L17.1028 34.1523C17.2818 34.051 17.4253 33.9071 17.5875 33.7447C17.5983 33.7338 17.6092 33.7229 17.6203 33.7118L17.6203 33.7118L32.6893 18.6428L32.7126 18.6195C33.0261 18.3061 33.2961 18.036 33.4833 17.7907C33.6839 17.5278 33.8358 17.2354 33.8358 16.875C33.8358 16.5146 33.6839 16.2222 33.4833 15.9593C33.2961 15.7139 33.0261 15.4439 32.7126 15.1305L32.6893 15.1072L29.8928 12.3107L29.8711 12.289L29.8695 12.2874C29.5561 11.9739 29.286 11.7039 29.0407 11.5167C28.7778 11.3161 28.4854 11.1642 28.125 11.1642C27.7646 11.1642 27.4722 11.3161 27.2093 11.5167C26.9639 11.7039 26.6939 11.974 26.3805 12.2874L26.3572 12.3107L11.2882 27.3797C11.2861 27.3818 11.284 27.3839 11.2819 27.386Z" stroke="#FAC014"/>
<path d="M23.4375 14.0625L29.0625 10.3125L34.6875 15.9375L30.9375 21.5625L23.4375 14.0625Z" fill="#FAC014"/>
</svg>
