<svg width="35" height="35" viewBox="0 0 35 35" fill="none" xmlns="http://www.w3.org/2000/svg">
<path d="M2.91663 17.5002L2.13576 16.8755L1.636 17.5002L2.13576 18.1249L2.91663 17.5002ZM16.0416 18.5002C16.5939 18.5002 17.0416 18.0524 17.0416 17.5002C17.0416 16.9479 16.5939 16.5002 16.0416 16.5002V18.5002ZM7.96909 9.5838L2.13576 16.8755L3.69749 18.1249L9.53083 10.8332L7.96909 9.5838ZM2.13576 18.1249L7.96909 25.4165L9.53083 24.1671L3.69749 16.8755L2.13576 18.1249ZM2.91663 18.5002H16.0416V16.5002H2.91663V18.5002Z" fill="white"/>
<path d="M14.5834 11.8589V9.22168C14.5834 7.60334 14.5834 6.79417 15.0573 6.23467C15.5313 5.67518 16.3295 5.54216 17.9258 5.2761L25.097 4.0809C28.3401 3.54039 29.9616 3.27013 31.0225 4.16883C32.0834 5.06752 32.0834 6.71144 32.0834 9.99927V25.0004C32.0834 28.2882 32.0834 29.9322 31.0225 30.8308C29.9616 31.7295 28.3401 31.4593 25.097 30.9188L17.9258 29.7236C16.3295 29.4575 15.5313 29.3245 15.0573 28.765C14.5834 28.2055 14.5834 27.3963 14.5834 25.778V23.4294" stroke="white" stroke-width="2"/>
</svg>
