<svg width="25" height="24" viewBox="0 0 25 24" fill="none" xmlns="http://www.w3.org/2000/svg">
<circle cx="12.7805" cy="8" r="3" stroke="#FAFAFF" stroke-width="2" stroke-linecap="round"/>
<path d="M16.0485 8C16.3137 7.54063 16.7505 7.20543 17.2629 7.06815C17.7752 6.93086 18.3211 7.00273 18.7805 7.26795C19.2399 7.53317 19.5751 7.97 19.7124 8.48236C19.8497 8.99472 19.7778 9.54063 19.5126 10C19.2474 10.4594 18.8105 10.7946 18.2982 10.9319C17.7858 11.0691 17.2399 10.9973 16.7805 10.7321C16.3211 10.4668 15.986 10.03 15.8487 9.51764C15.7114 9.00528 15.7833 8.45937 16.0485 8L16.0485 8Z" stroke="#FAFAFF" stroke-width="2"/>
<path d="M6.04847 8C6.31368 7.54063 6.75052 7.20543 7.26288 7.06815C7.77524 6.93086 8.32115 7.00273 8.78052 7.26795C9.23989 7.53317 9.57508 7.97 9.71237 8.48236C9.84966 8.99472 9.77778 9.54063 9.51257 10C9.24735 10.4594 8.81051 10.7946 8.29816 10.9319C7.7858 11.0691 7.23989 10.9973 6.78052 10.7321C6.32115 10.4668 5.98595 10.03 5.84867 9.51764C5.71138 9.00528 5.78325 8.45937 6.04847 8L6.04847 8Z" stroke="#FAFAFF" stroke-width="2"/>
<path d="M17.6621 18L16.6818 18.1974L16.8435 19H17.6621V18ZM21.5007 16.9042L22.4432 16.5699L21.5007 16.9042ZM15.5613 14.7105L14.9565 13.9142L13.7999 14.7927L15.0332 15.5597L15.5613 14.7105ZM20.6477 17H17.6621V19H20.6477V17ZM20.5583 17.2384C20.5512 17.2186 20.5447 17.181 20.553 17.1354C20.5609 17.0921 20.5788 17.0593 20.5957 17.0383C20.6279 16.9982 20.6545 17 20.6477 17V19C21.7937 19 22.9219 17.9194 22.4432 16.5699L20.5583 17.2384ZM17.7805 15C19.4221 15 20.1832 16.1811 20.5583 17.2384L22.4432 16.5699C21.9782 15.2588 20.729 13 17.7805 13V15ZM16.1662 15.5069C16.5507 15.2148 17.0625 15 17.7805 15V13C16.6186 13 15.6833 13.3622 14.9565 13.9142L16.1662 15.5069ZM15.0332 15.5597C16.0724 16.206 16.5076 17.3324 16.6818 18.1974L18.6425 17.8026C18.4245 16.7204 17.8179 14.9364 16.0895 13.8614L15.0332 15.5597Z" fill="#FAFAFF"/>
<path d="M9.9997 14.7105L10.5278 15.5597L11.7611 14.7927L10.6045 13.9142L9.9997 14.7105ZM4.06032 16.9041L5.00279 17.2384L5.00279 17.2384L4.06032 16.9041ZM7.89887 18V19H8.71755L8.87919 18.1974L7.89887 18ZM7.78053 15C8.49855 15 9.01038 15.2148 9.39484 15.5069L10.6045 13.9142C9.87775 13.3621 8.94241 13 7.78053 13V15ZM5.00279 17.2384C5.37783 16.1811 6.13894 15 7.78053 15V13C4.83202 13 3.5829 15.2587 3.11785 16.5699L5.00279 17.2384ZM4.9133 17C4.90652 17 4.93315 16.9982 4.96538 17.0383C4.98227 17.0593 5.00012 17.0921 5.008 17.1354C5.01631 17.181 5.00983 17.2186 5.00279 17.2384L3.11785 16.5699C2.63915 17.9194 3.76729 19 4.9133 19V17ZM7.89887 17H4.9133V19H7.89887V17ZM8.87919 18.1974C9.05341 17.3324 9.48866 16.206 10.5278 15.5597L9.47157 13.8614C7.74309 14.9363 7.13651 16.7203 6.91856 17.8026L8.87919 18.1974Z" fill="#FAFAFF"/>
<path d="M12.7805 14C16.3521 14 17.3724 16.5512 17.6639 18.0089C17.7722 18.5504 17.3328 19 16.7805 19H8.78052C8.22823 19 7.78881 18.5504 7.89711 18.0089C8.18862 16.5512 9.20898 14 12.7805 14Z" stroke="#FAFAFF" stroke-width="2" stroke-linecap="round"/>
</svg>
