<svg width="35" height="35" viewBox="0 0 35 35" fill="none" xmlns="http://www.w3.org/2000/svg">
<path d="M17.5 5C17.35 5 17.1999 5.03391 17.0624 5.1021L5.1875 11.574C4.9375 11.7104 4.9375 11.9237 5.1875 12.0601L17.0624 18.5343C17.1999 18.6025 17.35 18.6364 17.5 18.6364C17.65 18.6364 17.8001 18.6025 17.9376 18.5343L29.8125 12.0601C30.0625 11.9237 30.0625 11.7104 29.8125 11.574L17.9376 5.1021C17.8001 5.03391 17.65 5 17.5 5ZM17.5 7.36594L25.6658 11.8182L17.5 16.2704L9.33424 11.8182L17.5 7.36594ZM6.76882 15.7355L5.1875 16.6699C4.9375 16.8176 4.9375 17.046 5.1875 17.1937L17.0624 24.2072C17.1999 24.2811 17.35 24.3182 17.5 24.3182C17.65 24.3182 17.8001 24.2811 17.9376 24.2072L29.8125 17.1937C30.0625 17.046 30.0625 16.8176 29.8125 16.6699L28.2312 15.7355L17.9376 21.8146C17.8001 21.8885 17.65 21.9256 17.5 21.9256C17.35 21.9256 17.1999 21.8885 17.0624 21.8146L6.76882 15.7355ZM6.76882 21.4173L5.1875 22.3517C4.9375 22.4995 4.9375 22.7278 5.1875 22.8755L17.0624 29.889C17.1999 29.9629 17.35 30 17.5 30C17.65 30 17.8001 29.9629 17.9376 29.889L29.8125 22.8755C30.0625 22.7278 30.0625 22.4995 29.8125 22.3517L28.2312 21.4173L17.9376 27.4964C17.8001 27.5703 17.65 27.6074 17.5 27.6074C17.35 27.6074 17.1999 27.5703 17.0624 27.4964L6.76882 21.4173Z" fill="white" stroke="white" stroke-width="2"/>
</svg>
