<svg width="26" height="24" viewBox="0 0 26 24" fill="none" xmlns="http://www.w3.org/2000/svg">
<path d="M0 23.3063H2.517C3.20917 23.3063 3.7755 22.74 3.7755 22.0478V10.7213C3.7755 10.0291 3.20917 9.46282 2.517 9.46282H0V23.3063ZM24.9561 14.3458C25.0945 14.0312 25.17 13.6914 25.17 13.339V11.9798C25.17 10.5955 24.0373 9.46282 22.653 9.46282H15.7312L16.8891 3.6108C16.952 3.33393 16.9142 3.03189 16.7884 2.78019C16.4989 2.21386 16.134 1.69788 15.6809 1.24482L15.102 0.65332L7.03502 8.72031C6.55679 9.19854 6.2925 9.84037 6.2925 10.5074V20.374C6.2925 21.9849 7.61392 23.3063 9.23739 23.3063H19.4438C20.3248 23.3063 21.1554 22.8407 21.6084 22.0856L24.9561 14.3458Z" fill="#9BC53D"/>
</svg>
