<svg width="257" height="30" viewBox="0 0 257 30" fill="none" xmlns="http://www.w3.org/2000/svg">
<g clip-path="url(#clip0_36_299)">
<path d="M50.0835 3.90497C50.4612 4.61954 50.8965 5.50193 51.3896 6.55214C51.8826 7.60235 52.3966 8.73918 52.9316 9.96262C53.4666 11.1861 53.9964 12.4366 54.5209 13.7141C55.0454 14.9917 55.5384 16.1935 56 17.3195C56.4616 16.1935 56.9546 14.9917 57.4791 13.7141C58.0037 12.4366 58.5334 11.1861 59.0684 9.96262C59.6034 8.73918 60.1174 7.60235 60.6105 6.55214C61.1035 5.50193 61.5389 4.61955 61.9165 3.90497H66.3854C66.5952 5.39908 66.7892 7.07183 66.9676 8.92324C67.1459 10.7746 67.3032 12.7018 67.4396 14.7048C67.576 16.7078 67.7019 18.7162 67.8173 20.73C67.9327 22.7438 68.0323 24.6385 68.1162 26.4141H63.3327C63.2698 24.2271 63.1858 21.8452 63.0809 19.2683C62.976 16.6915 62.8187 14.0931 62.6089 11.473C62.2312 12.3824 61.8116 13.3893 61.35 14.4937C60.8885 15.598 60.4321 16.7024 59.9811 17.8067C59.53 18.9111 59.0946 19.9667 58.675 20.9736C58.2554 21.9805 57.8987 22.8412 57.605 23.5558H54.1747C53.881 22.8412 53.5243 21.9805 53.1047 20.9736C52.6851 19.9667 52.2498 18.9111 51.7987 17.8067C51.3476 16.7024 50.8913 15.598 50.4297 14.4937C49.9681 13.3893 49.5485 12.3824 49.1709 11.473C48.9611 14.0931 48.8037 16.6915 48.6988 19.2683C48.5939 21.8452 48.51 24.2271 48.4471 26.4141H43.6635C43.7474 24.6385 43.8471 22.7438 43.9625 20.73C44.0779 18.7162 44.2038 16.7078 44.3401 14.7048C44.4765 12.7018 44.6339 10.7746 44.8122 8.92324C44.9905 7.07183 45.1846 5.39908 45.3944 3.90497H50.0835Z" fill="#FFC600"/>
<path d="M76.6448 15.1433C76.6448 16.2476 76.7759 17.2437 77.0382 18.1315C77.3004 19.0193 77.6781 19.7826 78.1711 20.4214C78.6642 21.0602 79.2673 21.5528 79.9807 21.8993C80.694 22.2457 81.5122 22.419 82.4354 22.419C83.3375 22.419 84.1505 22.2457 84.8744 21.8993C85.5982 21.5528 86.2066 21.0602 86.6997 20.4214C87.1927 19.7826 87.5704 19.0193 87.8326 18.1315C88.0949 17.2437 88.226 16.2476 88.226 15.1433C88.226 14.0389 88.0949 13.0374 87.8326 12.1388C87.5704 11.2402 87.1927 10.4715 86.6997 9.83267C86.2066 9.19389 85.5982 8.70126 84.8744 8.3548C84.1505 8.00834 83.3375 7.83511 82.4354 7.83511C81.5122 7.83511 80.694 8.01376 79.9807 8.37104C79.2673 8.72833 78.6642 9.22636 78.1711 9.86515C77.6781 10.5039 77.3004 11.2727 77.0382 12.1713C76.7759 13.0699 76.6448 14.0606 76.6448 15.1433ZM93.2928 15.1433C93.2928 17.0705 93.0148 18.7649 92.4588 20.2265C91.9028 21.6881 91.1423 22.9116 90.1772 23.8968C89.2121 24.8821 88.0634 25.6237 86.7311 26.1218C85.3989 26.6198 83.967 26.8688 82.4354 26.8688C80.9458 26.8688 79.5401 26.6198 78.2183 26.1218C76.8966 25.6237 75.7426 24.8821 74.7565 23.8968C73.7705 22.9116 72.9942 21.6881 72.4277 20.2265C71.8612 18.7649 71.578 17.0705 71.578 15.1433C71.578 13.2161 71.8717 11.5217 72.4592 10.06C73.0466 8.59841 73.8387 7.36956 74.8352 6.37348C75.8318 5.3774 76.9857 4.63035 78.297 4.13231C79.6083 3.63427 80.9877 3.38525 82.4354 3.38525C83.925 3.38525 85.3307 3.63427 86.6525 4.13231C87.9742 4.63035 89.1282 5.3774 90.1142 6.37348C91.1003 7.36955 91.8766 8.5984 92.4431 10.06C93.0095 11.5217 93.2928 13.2161 93.2928 15.1433Z" fill="#FFC600"/>
<path d="M103.867 26.4141C103.007 24.5302 102.157 22.5706 101.318 20.5351C100.479 18.4996 99.6813 16.4858 98.926 14.4937C98.1707 12.5015 97.4731 10.596 96.8332 8.77708C96.1933 6.95816 95.6426 5.33412 95.181 3.90497H100.594C101.014 5.2042 101.47 6.60628 101.963 8.11122C102.456 9.61616 102.96 11.1157 103.474 12.6098C103.988 14.1039 104.486 15.5331 104.968 16.8973C105.451 18.2614 105.902 19.4416 106.322 20.4377C106.72 19.4416 107.166 18.2614 107.659 16.8973C108.152 15.5331 108.656 14.1039 109.17 12.6098C109.684 11.1157 110.187 9.61616 110.68 8.11122C111.173 6.60628 111.63 5.2042 112.049 3.90497H117.273C116.791 5.33412 116.235 6.95816 115.606 8.77708C114.976 10.596 114.284 12.5015 113.528 14.4937C112.773 16.4858 111.976 18.4996 111.137 20.5351C110.297 22.5706 109.448 24.5302 108.588 26.4141H103.867Z" fill="#FFC600"/>
<path d="M120.106 3.90497H125.015V26.4141H120.106V3.90497Z" fill="#FFC600"/>
<path d="M130.051 26.4141V3.90497H144.779V8.15994H134.96V12.5773H143.677V16.7349H134.96V22.1591H145.503V26.4141L130.051 26.4141Z" fill="#FFC600"/>
<path d="M163.168 3.64508C166.261 3.64508 168.565 4.25312 170.08 5.46921C171.595 6.68529 172.352 8.4117 172.352 10.6484C172.352 11.9297 172.131 13.0209 171.69 13.9221C171.248 14.8233 170.617 15.5508 169.796 16.1045C168.975 16.6583 167.971 17.06 166.782 17.3097C165.593 17.5595 164.252 17.6843 162.758 17.6843H159.791V26.4141H157.645V4.26398C158.403 4.04682 159.291 3.88938 160.312 3.79166C161.332 3.69393 162.285 3.64508 163.168 3.64508ZM163.263 5.56694C162.463 5.56694 161.785 5.59408 161.227 5.64837C160.67 5.70266 160.191 5.75152 159.791 5.79495V15.7625H162.505C163.663 15.7625 164.709 15.6919 165.646 15.5508C166.582 15.4096 167.382 15.149 168.044 14.769C168.707 14.389 169.217 13.8624 169.575 13.1892C169.933 12.516 170.112 11.6582 170.112 10.6159C170.112 9.61693 169.917 8.79173 169.528 8.14025C169.138 7.48878 168.623 6.97303 167.981 6.593C167.339 6.21298 166.608 5.94695 165.788 5.79495C164.967 5.64293 164.126 5.56694 163.263 5.56694Z" fill="white"/>
<path d="M193.196 26.4141C192.798 25.3098 192.42 24.2487 192.064 23.231C191.707 22.2133 191.361 21.2172 191.025 20.2428H180.419C180.063 21.2172 179.706 22.2133 179.349 23.231C178.993 24.2487 178.626 25.3098 178.248 26.4141H176.013C176.853 24.0755 177.639 21.8939 178.374 19.8692C179.108 17.8446 179.827 15.9282 180.53 14.1201C181.232 12.3121 181.93 10.5743 182.622 8.90699C183.315 7.23965 184.049 5.57231 184.825 3.90497H186.714C187.49 5.57231 188.224 7.23965 188.916 8.90699C189.609 10.5743 190.306 12.3121 191.009 14.1201C191.712 15.9282 192.431 17.8446 193.165 19.8692C193.899 21.8939 194.697 24.0755 195.557 26.4141H193.196ZM185.706 6.43846C184.909 8.30068 184.138 10.1954 183.393 12.1226C182.649 14.0498 181.878 16.1285 181.08 18.3589H190.364C189.567 16.1285 188.791 14.0498 188.035 12.1226C187.28 10.1954 186.504 8.30068 185.706 6.43846Z" fill="white"/>
<path d="M215.213 10.6158C215.213 12.3097 214.782 13.6452 213.919 14.6224C213.057 15.5996 211.921 16.3054 210.511 16.7397C210.847 17.174 211.284 17.7603 211.821 18.4987C212.357 19.237 212.909 20.0459 213.478 20.9254C214.046 21.8049 214.603 22.7224 215.15 23.6779C215.697 24.6334 216.16 25.5454 216.539 26.4141H214.235C213.793 25.5454 213.314 24.6768 212.799 23.8082C212.283 22.9395 211.757 22.0981 211.221 21.2837C210.684 20.4694 210.164 19.7147 209.659 19.0198C209.154 18.3249 208.712 17.7169 208.333 17.1957C207.66 17.2609 206.987 17.2934 206.313 17.2934H202.778V26.4141H200.632V4.26398C201.39 4.04682 202.279 3.88938 203.299 3.79166C204.32 3.69393 205.261 3.64508 206.124 3.64508C209.133 3.64508 211.4 4.2314 212.925 5.40406C214.451 6.57671 215.213 8.31397 215.213 10.6158ZM206.376 5.56692C205.577 5.56692 204.877 5.59406 204.278 5.64835C203.678 5.70264 203.178 5.7515 202.778 5.79493V15.4042H205.745C206.734 15.4042 207.67 15.3553 208.554 15.2576C209.438 15.1599 210.206 14.9427 210.858 14.6061C211.51 14.2695 212.026 13.7863 212.404 13.1566C212.783 12.5268 212.973 11.6691 212.973 10.5833C212.973 9.58433 212.783 8.75913 212.404 8.10766C212.026 7.45619 211.531 6.94044 210.921 6.56041C210.311 6.18038 209.611 5.9198 208.822 5.77864C208.033 5.63749 207.218 5.56692 206.376 5.56692Z" fill="white"/>
<path d="M235.855 3.90497V5.82133H228.868V26.4141H226.728V5.82133H219.742V3.90497H235.855Z" fill="white"/>
<path d="M246.807 26.4141V17.1571C245.317 14.7968 243.948 12.5178 242.7 10.3199C241.452 8.12205 240.292 5.98373 239.222 3.90497H241.709C242.59 5.8105 243.56 7.74311 244.62 9.70278C245.679 11.6625 246.786 13.5301 247.94 15.3057C249.052 13.5301 250.143 11.6625 251.213 9.70278C252.283 7.74311 253.269 5.8105 254.171 3.90497H256.5C255.388 5.96208 254.213 8.1004 252.975 10.3199C251.737 12.5394 250.394 14.7968 248.947 17.0921V26.4141L246.807 26.4141Z" fill="white"/>
<path d="M11.0211 0.833555C12.3177 0.0609342 13.6143 0.0609342 14.9109 0.833555L23.9871 6.24189C25.2837 7.01451 25.932 8.17344 25.932 9.71868V20.5354C25.932 22.0806 25.2837 23.2395 23.9871 24.0121L14.9109 29.4205C13.6143 30.1931 12.3177 30.1931 11.0211 29.4205L1.9449 24.0121C0.648302 23.2395 0 22.0806 0 20.5354V9.71868C0 8.17344 0.648302 7.01451 1.9449 6.24189L11.0211 0.833555ZM11.3296 21.9933C11.8709 21.9933 12.3288 21.5206 12.3288 20.9191V4.11839C12.3288 3.64574 11.9958 3.21605 11.4962 3.13011C11.0382 3.00121 10.5803 3.25901 10.3721 3.73167L6.58356 13.1418L3.16971 8.67305C2.87828 8.3293 2.46196 8.20039 2.04563 8.37226C1.62931 8.50117 1.37952 8.88789 1.37952 9.31757V20.9191C1.37952 21.5206 1.83747 21.9933 2.3787 21.9933C2.91992 21.9933 3.37787 21.5206 3.37787 20.9191V12.3254L6.04234 15.7629C6.29213 16.0636 6.62519 16.1925 6.99988 16.1496C7.33294 16.1066 7.62437 15.8918 7.7909 15.548L10.2888 9.27461V20.9191C10.2888 21.5206 10.7468 21.9933 11.3296 21.9933ZM14.6908 21.9933C15.2319 21.9933 15.6898 21.5208 15.6898 20.9623V16.1511C15.7314 16.1941 15.773 16.1941 15.8562 16.1941H23.5978C24.1805 16.1941 24.5967 15.7215 24.5967 15.1631V9.36387C24.5967 8.97726 24.4302 8.63361 24.0973 8.46178L15.1903 3.22099C14.8573 3.04916 14.4827 3.04916 14.1914 3.26394C13.8584 3.43577 13.6919 3.77943 13.6919 4.12309V20.9623C13.6919 21.5208 14.1081 21.9933 14.6908 21.9933ZM15.6898 14.1321V5.92729L22.5989 9.96527V14.0892H15.8562C15.773 14.0892 15.7314 14.1321 15.6898 14.1321Z" fill="#FFC600"/>
</g>
<defs>
<clipPath id="clip0_36_299">
<rect width="256.5" height="30" fill="white"/>
</clipPath>
</defs>
</svg>
