<svg width="14" height="14" viewBox="0 0 14 14" fill="none" xmlns="http://www.w3.org/2000/svg">
<path d="M12.7254 5.7228H8.27381V1.27489C8.27381 0.570831 7.70575 0 7.0017 0C6.29764 0 5.72989 0.570831 5.72989 1.27519V5.72588H1.27612C0.572065 5.72588 -0.00030789 6.29672 5.00703e-07 7.00108C-0.00030789 7.35295 0.14186 7.67553 0.372228 7.9059C0.602904 8.13688 0.921163 8.28275 1.27273 8.28275H5.72989V12.7273C5.72989 13.0795 5.8696 13.3983 6.10027 13.6284C6.33095 13.8591 6.64828 14.0019 7.00046 14.0019C7.70421 14.0019 8.27381 13.431 8.27381 12.7273V8.28244H12.7254C13.4295 8.28244 14.0003 7.70668 14 7.00262C13.9997 6.29887 13.4289 5.7228 12.7254 5.7228Z" fill="#011627"/>
</svg>
