<svg width="35" height="35" viewBox="0 0 35 35" fill="none" xmlns="http://www.w3.org/2000/svg">
<path d="M4.375 13.6665C4.375 12.7237 4.375 12.2523 4.66789 11.9594C4.96079 11.6665 5.43219 11.6665 6.375 11.6665H28.625C29.5678 11.6665 30.0392 11.6665 30.3321 11.9594C30.625 12.2523 30.625 12.7237 30.625 13.6665V16.9582C30.625 17.901 30.625 18.3724 30.3321 18.6653C30.0392 18.9582 29.5678 18.9582 28.625 18.9582H28.25C27.3072 18.9582 26.8358 18.9582 26.5429 19.2511C26.25 19.544 26.25 20.0154 26.25 20.9582V27.1665C26.25 28.1093 26.25 28.5807 25.9571 28.8736C25.6642 29.1665 25.1928 29.1665 24.25 29.1665H10.75C9.80719 29.1665 9.33579 29.1665 9.04289 28.8736C8.75 28.5807 8.75 28.1093 8.75 27.1665V20.9582C8.75 20.0154 8.75 19.544 8.45711 19.2511C8.16421 18.9582 7.69281 18.9582 6.75 18.9582H6.375C5.43219 18.9582 4.96079 18.9582 4.66789 18.6653C4.375 18.3724 4.375 17.901 4.375 16.9582V13.6665Z" stroke="white" stroke-width="2"/>
<path d="M7.29163 18.9585H27.7083" stroke="white" stroke-width="2" stroke-linecap="round"/>
<path d="M17.5 10.2085L17.5 29.1668" stroke="white" stroke-width="2" stroke-linecap="round"/>
<path d="M17.5 10.2083L15.6903 8.39868C14.4828 7.19115 13.0107 6.28136 11.3906 5.74134L9.92408 5.25249C8.62902 4.8208 7.29163 5.78474 7.29163 7.14985V8.76681C7.29163 9.62767 7.84249 10.392 8.65917 10.6642L11.6666 11.6667" stroke="white" stroke-width="2" stroke-linecap="round"/>
<path d="M17.5 10.2083L19.3097 8.39868C20.5172 7.19115 21.9893 6.28136 23.6094 5.74134L25.0759 5.25249C26.371 4.8208 27.7084 5.78474 27.7084 7.14985V8.76681C27.7084 9.62767 27.1575 10.392 26.3408 10.6642L23.3334 11.6667" stroke="white" stroke-width="2" stroke-linecap="round"/>
</svg>
