<svg width="23" height="22" viewBox="0 0 23 22" fill="none" xmlns="http://www.w3.org/2000/svg">
<path d="M8.45 0C4.21044 0 0.75 3.46044 0.75 7.7C0.75 11.9396 4.21044 15.4 8.45 15.4C10.3728 15.4 12.1295 14.6828 13.4816 13.5094L13.95 13.9777V15.4L20.55 22L22.75 19.8L16.15 13.2H14.7277L14.2594 12.7316C15.4328 11.3795 16.15 9.6228 16.15 7.7C16.15 3.46044 12.6896 0 8.45 0ZM8.45 2.2C11.5006 2.2 13.95 4.64941 13.95 7.7C13.95 10.7506 11.5006 13.2 8.45 13.2C5.39941 13.2 2.95 10.7506 2.95 7.7C2.95 4.64941 5.39941 2.2 8.45 2.2Z" fill="white"/>
</svg>
