<svg width="30" height="30" viewBox="0 0 30 30" fill="none" xmlns="http://www.w3.org/2000/svg">
<path d="M22.1401 15.9404C22.1801 15.6404 22.2001 15.3304 22.2001 15.0004C22.2001 14.6804 22.1801 14.3604 22.1301 14.0604L24.1601 12.4804C24.3401 12.3404 24.3901 12.0704 24.2801 11.8704L22.3601 8.55039C22.2401 8.33039 21.9901 8.26039 21.7701 8.33039L19.3801 9.29039C18.8801 8.91039 18.3501 8.59039 17.7601 8.35039L17.4001 5.81039C17.3601 5.57039 17.1601 5.40039 16.9201 5.40039H13.0801C12.8401 5.40039 12.6501 5.57039 12.6101 5.81039L12.2501 8.35039C11.6601 8.59039 11.1201 8.92039 10.6301 9.29039L8.24011 8.33039C8.02011 8.25039 7.77011 8.33039 7.65011 8.55039L5.74011 11.8704C5.62011 12.0804 5.66011 12.3404 5.86011 12.4804L7.89011 14.0604C7.84011 14.3604 7.80011 14.6904 7.80011 15.0004C7.80011 15.3104 7.82011 15.6404 7.87011 15.9404L5.84011 17.5204C5.66011 17.6604 5.61011 17.9304 5.72011 18.1304L7.64011 21.4504C7.76011 21.6704 8.01011 21.7404 8.23011 21.6704L10.6201 20.7104C11.1201 21.0904 11.6501 21.4104 12.2401 21.6504L12.6001 24.1904C12.6501 24.4304 12.8401 24.6004 13.0801 24.6004H16.9201C17.1601 24.6004 17.3601 24.4304 17.3901 24.1904L17.7501 21.6504C18.3401 21.4104 18.8801 21.0904 19.3701 20.7104L21.7601 21.6704C21.9801 21.7504 22.2301 21.6704 22.3501 21.4504L24.2701 18.1304C24.3901 17.9104 24.3401 17.6604 24.1501 17.5204L22.1401 15.9404ZM15.0001 18.6004C13.0201 18.6004 11.4001 16.9804 11.4001 15.0004C11.4001 13.0204 13.0201 11.4004 15.0001 11.4004C16.9801 11.4004 18.6001 13.0204 18.6001 15.0004C18.6001 16.9804 16.9801 18.6004 15.0001 18.6004Z" fill="white"/>
</svg>
