<svg width="35" height="35" viewBox="0 0 35 35" fill="none" xmlns="http://www.w3.org/2000/svg">
<path fill-rule="evenodd" clip-rule="evenodd" d="M10.0326 9.75886C8.00516 11.715 6.74419 14.4602 6.74419 17.5C6.74419 23.4402 11.5597 28.2558 17.5 28.2558C17.6483 28.2558 17.7958 28.2528 17.9427 28.2469C17.7037 27.1869 17.6714 25.7617 18.4 24.3887C19.1583 22.9599 20.7281 22.3398 21.8824 22.056C22.4872 21.9074 23.0474 21.8341 23.4548 21.7976C23.6595 21.7792 23.8283 21.7699 23.9479 21.7651C24.0077 21.7628 24.0555 21.7615 24.0895 21.7609L24.1301 21.7603L24.14 21.7602C26.0848 21.74 26.9609 21.1076 27.4259 20.5042C27.8231 19.9888 27.9731 19.4734 28.1252 18.9506C28.1445 18.8841 28.164 18.8174 28.1838 18.7507C28.2314 18.3403 28.2558 17.923 28.2558 17.5C28.2558 14.565 27.0802 11.9046 25.1743 9.96393C25.1642 10.0035 25.1538 10.0426 25.1433 10.0809C24.954 10.7704 24.6483 11.4781 24.316 11.9823C24.0185 12.4339 23.4413 12.8894 22.9622 13.2337C22.6469 13.4602 22.3186 13.6527 22.0208 13.8243C21.9849 13.845 21.9494 13.8654 21.9143 13.8856C21.6492 14.0381 21.4106 14.1753 21.1809 14.327C20.6788 14.6588 20.2903 15.0158 20.0288 15.555C19.9373 15.7438 19.9344 15.928 19.9886 16.1252C20.0753 16.4409 20.1344 16.796 20.1353 17.1581C20.1373 17.9128 19.7529 18.5252 19.2588 18.9234C18.7707 19.3169 18.1327 19.5419 17.4905 19.5349C14.6355 19.5036 12.8801 17.1867 12.6486 14.6099C12.5565 13.5848 12.1071 12.5479 11.5397 11.6417C11.0185 10.8094 10.4313 10.1406 10.0326 9.75886ZM11.3896 8.64723C11.8722 9.13328 12.4777 9.85327 13.018 10.716C13.6662 11.7513 14.2602 13.0553 14.3858 14.4538C14.5613 16.4076 15.7964 17.7721 17.5095 17.7907C17.7451 17.7934 17.9898 17.706 18.1644 17.5653C18.3331 17.4294 18.3915 17.2858 18.3912 17.1627C18.3907 16.9819 18.3602 16.782 18.3066 16.587C18.1658 16.074 18.1457 15.4409 18.4595 14.7938C18.9072 13.8708 19.5707 13.3004 20.2195 12.8718C20.4976 12.688 20.786 12.5223 21.0463 12.3727C21.0814 12.3526 21.1159 12.3327 21.1499 12.3131C21.4466 12.1421 21.7072 11.9877 21.9444 11.8172C22.4457 11.457 22.7628 11.1695 22.8595 11.0226C23.0717 10.7006 23.3103 10.169 23.4613 9.61919C23.5809 9.18357 23.6141 8.84926 23.6029 8.64205C21.869 7.44513 19.7663 6.74419 17.5 6.74419C15.2303 6.74419 13.125 7.44715 11.3896 8.64723ZM29.9177 18.9422C29.9721 18.469 30 17.9878 30 17.5C30 10.5964 24.4036 5 17.5 5C10.5964 5 5 10.5964 5 17.5C5 24.4036 10.5964 30 17.5 30C23.8493 30 29.0929 25.2662 29.894 19.1353C29.9152 19.0615 29.9336 19 29.9501 18.9536L29.9177 18.9422ZM26.6915 23.0891C25.999 23.3429 25.1642 23.4938 24.1583 23.5044H24.1491H24.146L24.1221 23.5048C24.0994 23.5052 24.0638 23.506 24.0167 23.5079C23.9224 23.5117 23.783 23.5193 23.6107 23.5348C23.2641 23.5658 22.795 23.6279 22.2987 23.7499C21.2508 24.0074 20.3314 24.47 19.9407 25.2063C19.411 26.2043 19.4866 27.2902 19.6842 28.034C22.6481 27.4226 25.1664 25.5917 26.6915 23.0891Z" fill="white"/>
</svg>
