<svg width="52" height="28" viewBox="0 0 52 28" fill="none" xmlns="http://www.w3.org/2000/svg">
<g clip-path="url(#clip0_204_2746)">
<path d="M51.8519 2.40651C51.7112 1.17379 50.8572 0.191285 49.7697 0C45.0029 0 6.86969 0 2.10293 0C0.911691 0.20964 0 1.36797 0 2.76397C0 5.00818 0 22.958 0 25.2013C0 26.747 1.11549 28 2.4925 28C7.18081 28 44.6918 28 49.3801 28C50.648 28 51.6949 26.9363 51.8519 25.5597C51.8519 20.9292 51.8519 4.72125 51.8519 2.40651Z" fill="#F6C700"/>
<path d="M6.25378 5.62646H10.3686V22.5957H6.25378V5.62646Z" fill="black"/>
<path d="M18.1436 13.4428C17.7901 10.8566 17.5935 9.41908 17.5548 9.13215C17.3825 7.74776 17.2184 6.54305 17.0615 5.51514C16.7053 5.51514 14.9279 5.51514 11.7266 5.51514V22.4844H15.331L15.3436 11.2798L16.8604 22.4844H19.4278L20.8661 11.0305L20.8796 22.4844H24.4723V5.51514H19.0968L18.1436 13.4428Z" fill="black"/>
<path d="M31.2653 9.04521C31.3104 9.26161 31.3338 9.75238 31.3338 10.5194C31.3338 11.1774 31.3338 16.4406 31.3338 17.0985C31.3338 18.2278 31.2653 18.9195 31.1291 19.1746C30.9921 19.4296 30.6277 19.5562 30.0371 19.5562C30.0371 18.4423 30.0371 9.53115 30.0371 8.41725C30.4853 8.41725 30.791 8.46845 30.9533 8.56893C31.1156 8.67037 31.2202 8.8288 31.2653 9.04521ZM33.1238 22.3115C33.6135 22.1965 34.0247 21.9936 34.3584 21.7048C34.6911 21.4149 34.9247 21.014 35.0581 20.501C35.1925 19.989 35.2719 18.9717 35.2719 17.4501C35.2719 16.855 35.2719 12.0874 35.2719 11.4913C35.2719 9.8857 35.2132 8.80948 35.1222 8.26268C35.0302 7.71491 34.802 7.21738 34.4368 6.77105C34.0707 6.32471 33.5369 6.00398 32.8353 5.80883C32.1328 5.61368 30.9875 5.51514 28.9955 5.51514C28.7908 5.51514 27.7682 5.51514 25.9259 5.51514V22.4844H30.9109C32.0598 22.4458 32.7974 22.3888 33.1238 22.3115Z" fill="black"/>
<path d="M41.9107 19.7758C41.835 19.9913 41.5031 20.1005 41.2524 20.1005C41.0071 20.1005 40.8439 19.9961 40.7609 19.7865C40.678 19.5778 40.6374 19.1015 40.6374 18.3557C40.6374 17.9074 40.6374 14.3194 40.6374 13.8711C40.6374 13.0983 40.6735 12.6162 40.7465 12.424C40.8187 12.2336 40.9774 12.137 41.2227 12.137C41.4733 12.137 41.8097 12.2462 41.8963 12.4655C41.9819 12.6848 42.0252 13.1533 42.0252 13.8711C42.0252 14.161 42.0252 15.6101 42.0252 18.2195C41.9991 19.1131 41.9612 19.6319 41.9107 19.7758ZM36.6732 22.3369H40.3777C40.5319 21.6887 40.6167 21.3283 40.6338 21.2559C40.9693 21.6906 41.3381 22.0172 41.743 22.2336C42.1461 22.4509 42.7494 22.5591 43.2165 22.5591C43.8666 22.5591 44.4276 22.3765 44.901 22.0104C45.3735 21.6452 45.6747 21.2124 45.8028 20.7149C45.9308 20.2164 45.9948 19.459 45.9948 18.4407C45.9948 17.9644 45.9948 14.1561 45.9948 13.6799C45.9948 12.6558 45.9732 11.9873 45.9308 11.6733C45.8884 11.3593 45.7622 11.0396 45.5521 10.7121C45.3419 10.3845 45.0362 10.1305 44.6359 9.94884C44.2355 9.76722 43.7629 9.67641 43.2183 9.67641C42.7448 9.67641 42.1389 9.77785 41.7349 9.97783C41.3318 10.1778 40.9657 10.4812 40.6374 10.8879C40.6374 10.5198 40.6374 8.68038 40.6374 5.36768H36.6732V22.3369Z" fill="black"/>
</g>
<defs>
<clipPath id="clip0_204_2746">
<rect width="51.8519" height="28" fill="white"/>
</clipPath>
</defs>
</svg>
